<svg id="Celebration" xmlns="http://www.w3.org/2000/svg" xmlns:xlink="http://www.w3.org/1999/xlink" width="30cm" height="30cm" viewBox="0 0 850.39 850.39"><defs><style>.cls-1{fill:#292445;}.cls-2{fill:#362947;}.cls-3{fill:url(#linear-gradient);}.cls-4{fill:#141212;}.cls-5{fill:#5f3c7d;}.cls-6{fill:#19402d;}.cls-7{fill:#1f4f39;}.cls-8{fill:#13633d;}.cls-9{fill:#233;}</style><linearGradient id="linear-gradient" x1="425.2" y1="698.11" x2="425.2" y2="841.06" gradientUnits="userSpaceOnUse"><stop offset="0.09" stop-color="#201a33"/><stop offset="0.91" stop-color="#362947"/></linearGradient></defs><g id="background"><rect class="cls-1" width="850.39" height="850.39"/><rect class="cls-2" y="732.5" width="850.39" height="77.86"/><polygon class="cls-3" points="850.39 810.36 0 810.36 0 732.5 419.34 732.5 850.39 732.5 850.39 810.36"/><path class="cls-4" d="M850.39,850.39H0l1.24-72.3s20.63,17.19,135.83,12,247.5,13.94,357.63,15.47c123.79,1.72,218.35-8.6,357.62-17.19C852,806.87,850.39,850.39,850.39,850.39Z"/></g><g id="stars"><path class="cls-5" d="M218.46,756.38a1.64,1.64,0,0,1-3.28,0A1.64,1.64,0,0,1,218.46,756.38Z"/><path class="cls-5" d="M300.87,757.67a1.64,1.64,0,0,1-3.28,0A1.64,1.64,0,0,1,300.87,757.67Z"/><path class="cls-5" d="M398.26,750.17a1.64,1.64,0,0,1-3.27,0A1.64,1.64,0,0,1,398.26,750.17Z"/><path class="cls-5" d="M729,745.86a1.64,1.64,0,0,1-3.27,0A1.64,1.64,0,0,1,729,745.86Z"/><path class="cls-5" d="M831.65,748.49a1.64,1.64,0,0,1-3.28,0A1.64,1.64,0,0,1,831.65,748.49Z"/><path class="cls-5" d="M555.64,747.83a1.64,1.64,0,0,1-3.28,0A1.64,1.64,0,0,1,555.64,747.83Z"/><path class="cls-5" d="M101.58,760.23a1.64,1.64,0,0,1-3.27,0A1.64,1.64,0,0,1,101.58,760.23Z"/><path class="cls-5" d="M25.24,744A1.64,1.64,0,0,1,22,744,1.64,1.64,0,0,1,25.24,744Z"/><path class="cls-6" d="M152.38,617.75a1.64,1.64,0,0,1-3.27,0A1.64,1.64,0,0,1,152.38,617.75Z"/><path class="cls-6" d="M837.51,404.33a1.64,1.64,0,0,1-3.28,0A1.64,1.64,0,0,1,837.51,404.33Z"/><path class="cls-6" d="M103.82,611.16a1.64,1.64,0,0,1-3.28,0A1.64,1.64,0,0,1,103.82,611.16Z"/><path class="cls-6" d="M56.6,683.68a1.64,1.64,0,0,1-3.28,0A1.64,1.64,0,0,1,56.6,683.68Z"/><path class="cls-6" d="M15.18,668.26a1.64,1.64,0,0,1-3.28,0A1.64,1.64,0,0,1,15.18,668.26Z"/><path class="cls-6" d="M101.37,717.64a1.64,1.64,0,0,1-3.28,0A1.64,1.64,0,0,1,101.37,717.64Z"/><path class="cls-6" d="M220.6,687a1.64,1.64,0,0,1-3.28,0A1.64,1.64,0,0,1,220.6,687Z"/><path class="cls-6" d="M220.17,640a1.64,1.64,0,0,1-3.28,0A1.64,1.64,0,0,1,220.17,640Z"/><path class="cls-6" d="M295.73,721.49a1.64,1.64,0,0,1-3.27,0A1.64,1.64,0,0,1,295.73,721.49Z"/><path class="cls-6" d="M310.07,657.91a1.64,1.64,0,0,1-3.27,0A1.64,1.64,0,0,1,310.07,657.91Z"/><path class="cls-6" d="M374.47,636.48a1.64,1.64,0,0,1-3.27,0A1.64,1.64,0,0,1,374.47,636.48Z"/><path class="cls-6" d="M58.23,106.69a1.64,1.64,0,0,1-3.27,0A1.64,1.64,0,0,1,58.23,106.69Z"/><path class="cls-6" d="M382.21,570.69a1.64,1.64,0,0,1-3.28,0A1.64,1.64,0,0,1,382.21,570.69Z"/><path class="cls-6" d="M53.71,38.3a1.64,1.64,0,0,1-3.28,0A1.64,1.64,0,0,1,53.71,38.3Z"/><path class="cls-6" d="M391.52,699.41a1.64,1.64,0,0,1-3.27,0A1.64,1.64,0,0,1,391.52,699.41Z"/><path class="cls-6" d="M362.33,477.54a1.64,1.64,0,0,1-3.27,0A1.64,1.64,0,0,1,362.33,477.54Z"/><path class="cls-6" d="M495.84,629.73a1.64,1.64,0,0,1-3.27,0A1.64,1.64,0,0,1,495.84,629.73Z"/><path class="cls-6" d="M511,700.41c0,2.12-3.3,2.12-3.27,0A1.64,1.64,0,0,1,511,700.41Z"/><path class="cls-6" d="M549.17,648.68a1.64,1.64,0,0,1-3.27,0A1.64,1.64,0,0,1,549.17,648.68Z"/><path class="cls-6" d="M563.59,619.46a1.64,1.64,0,0,1-3.27,0A1.64,1.64,0,0,1,563.59,619.46Z"/><path class="cls-6" d="M556.62,488a1.64,1.64,0,0,1-3.27,0A1.64,1.64,0,0,1,556.62,488Z"/><path class="cls-6" d="M546.75,462a1.64,1.64,0,0,1-3.27,0A1.64,1.64,0,0,1,546.75,462Z"/><path class="cls-6" d="M435.16,80.68a1.64,1.64,0,0,1-3.28,0A1.64,1.64,0,0,1,435.16,80.68Z"/><path class="cls-6" d="M431.07,442.3a1.64,1.64,0,0,1-3.27,0A1.64,1.64,0,0,1,431.07,442.3Z"/><path class="cls-6" d="M498.44,413a1.64,1.64,0,0,1-3.27,0A1.64,1.64,0,0,1,498.44,413Z"/><path class="cls-6" d="M356.61,306.36a1.64,1.64,0,0,1-3.28,0A1.64,1.64,0,0,1,356.61,306.36Z"/><path class="cls-6" d="M340.82,227.08a1.64,1.64,0,0,1-3.28,0A1.64,1.64,0,0,1,340.82,227.08Z"/><path class="cls-6" d="M348.38,213.59a1.64,1.64,0,0,1-3.27,0A1.64,1.64,0,0,1,348.38,213.59Z"/><path class="cls-6" d="M500.37,522.81a1.64,1.64,0,0,1-3.28,0A1.64,1.64,0,0,1,500.37,522.81Z"/><path class="cls-6" d="M512,52.46a1.64,1.64,0,0,1-3.27,0A1.64,1.64,0,0,1,512,52.46Z"/><path class="cls-6" d="M168.77,194.51a1.64,1.64,0,0,1-3.27,0A1.64,1.64,0,0,1,168.77,194.51Z"/><path class="cls-6" d="M236.53,143.58a1.64,1.64,0,0,1-3.28,0A1.64,1.64,0,0,1,236.53,143.58Z"/><path class="cls-6" d="M309,189.53a1.64,1.64,0,0,1-3.27,0A1.64,1.64,0,0,1,309,189.53Z"/><path class="cls-6" d="M157.26,206a1.64,1.64,0,0,1-3.28,0A1.64,1.64,0,0,1,157.26,206Z"/><path class="cls-6" d="M158.9,236.61a1.64,1.64,0,0,1-3.28,0A1.64,1.64,0,0,1,158.9,236.61Z"/><path class="cls-6" d="M93.84,248a1.64,1.64,0,0,1-3.27,0A1.64,1.64,0,0,1,93.84,248Z"/><path class="cls-6" d="M136.93,89.35a1.64,1.64,0,0,1-3.27,0A1.64,1.64,0,0,1,136.93,89.35Z"/><path class="cls-6" d="M19.74,430.37a1.64,1.64,0,0,1-3.27,0A1.64,1.64,0,0,1,19.74,430.37Z"/><path class="cls-6" d="M8.89,511.64a1.64,1.64,0,0,1-3.28,0A1.64,1.64,0,0,1,8.89,511.64Z"/><path class="cls-6" d="M59.87,480.43a1.64,1.64,0,0,1-3.27,0A1.64,1.64,0,0,1,59.87,480.43Z"/><path class="cls-6" d="M111.5,422.63a1.64,1.64,0,0,1-3.27,0A1.64,1.64,0,0,1,111.5,422.63Z"/><path class="cls-6" d="M123.06,454.42a1.64,1.64,0,0,1-3.27,0A1.64,1.64,0,0,1,123.06,454.42Z"/><path class="cls-6" d="M69.79,347.5a1.64,1.64,0,0,1-3.27,0A1.64,1.64,0,0,1,69.79,347.5Z"/><path class="cls-6" d="M215,504.51a1.64,1.64,0,0,1-3.28,0A1.64,1.64,0,0,1,215,504.51Z"/><path class="cls-6" d="M326.69,353.28a1.64,1.64,0,0,1-3.27,0A1.64,1.64,0,0,1,326.69,353.28Z"/><path class="cls-6" d="M611.43,157.74a1.64,1.64,0,0,1-3.27,0A1.64,1.64,0,0,1,611.43,157.74Z"/><path class="cls-6" d="M523.78,108.61a1.64,1.64,0,0,1-3.28,0A1.64,1.64,0,0,1,523.78,108.61Z"/><path class="cls-6" d="M572.61,41.19a1.64,1.64,0,0,1-3.27,0A1.64,1.64,0,0,1,572.61,41.19Z"/><path class="cls-6" d="M605.65,345.57a1.64,1.64,0,0,1-3.27,0A1.64,1.64,0,0,1,605.65,345.57Z"/><path class="cls-6" d="M637.15,272.37a1.64,1.64,0,0,1-3.27,0A1.64,1.64,0,0,1,637.15,272.37Z"/><path class="cls-6" d="M644.14,451.44a1.64,1.64,0,0,1-3.28,0A1.64,1.64,0,0,1,644.14,451.44Z"/><path class="cls-6" d="M679.66,470.51a1.64,1.64,0,0,1-3.28,0A1.64,1.64,0,0,1,679.66,470.51Z"/><path class="cls-6" d="M725.05,502.09a1.64,1.64,0,0,1-3.27,0A1.64,1.64,0,0,1,725.05,502.09Z"/><path class="cls-6" d="M360.41,139.44a1.64,1.64,0,0,1-3.28,0A1.64,1.64,0,0,1,360.41,139.44Z"/><path class="cls-6" d="M379,388a1.64,1.64,0,0,1-3.28,0A1.64,1.64,0,0,1,379,388Z"/><path class="cls-6" d="M830.09,212.64a1.64,1.64,0,0,1-3.27,0A1.64,1.64,0,0,1,830.09,212.64Z"/><path class="cls-6" d="M772.3,237.69a1.64,1.64,0,0,1-3.28,0A1.64,1.64,0,0,1,772.3,237.69Z"/><path class="cls-6" d="M654.49,236.73a1.64,1.64,0,0,1-3.28,0A1.64,1.64,0,0,1,654.49,236.73Z"/><path class="cls-6" d="M592.17,690.42a1.64,1.64,0,0,1-3.28,0A1.64,1.64,0,0,1,592.17,690.42Z"/><path class="cls-6" d="M676.64,673.08a1.64,1.64,0,0,1-3.27,0A1.64,1.64,0,0,1,676.64,673.08Z"/><path class="cls-6" d="M708,638.62a1.64,1.64,0,0,1-3.28,0A1.64,1.64,0,0,1,708,638.62Z"/><path class="cls-6" d="M727.36,606.38a1.64,1.64,0,0,1-3.27,0A1.64,1.64,0,0,1,727.36,606.38Z"/><path class="cls-6" d="M728,665.92a1.64,1.64,0,0,1-3.28,0A1.64,1.64,0,0,1,728,665.92Z"/><path class="cls-6" d="M827.2,650a1.64,1.64,0,0,1-3.27,0A1.64,1.64,0,0,1,827.2,650Z"/><path class="cls-6" d="M836.83,316.68a1.64,1.64,0,0,1-3.27,0A1.64,1.64,0,0,1,836.83,316.68Z"/><path class="cls-6" d="M833.62,588.29a1.64,1.64,0,0,1-3.27,0A1.64,1.64,0,0,1,833.62,588.29Z"/><path class="cls-6" d="M342.68,446.72a1.64,1.64,0,0,1-3.27,0A1.64,1.64,0,0,1,342.68,446.72Z"/><path class="cls-6" d="M221,244.43a1.64,1.64,0,0,1-3.27,0A1.64,1.64,0,0,1,221,244.43Z"/><path class="cls-6" d="M271.11,251.17a1.64,1.64,0,0,1-3.27,0A1.64,1.64,0,0,1,271.11,251.17Z"/><path class="cls-6" d="M29,639.93a1.64,1.64,0,0,1-3.28,0A1.64,1.64,0,0,1,29,639.93Z"/><path class="cls-6" d="M419.56,252.1a1.64,1.64,0,0,1-3.28,0A1.64,1.64,0,0,1,419.56,252.1Z"/><path class="cls-6" d="M575.55,397.37a1.64,1.64,0,0,1-3.28,0A1.64,1.64,0,0,1,575.55,397.37Z"/><path class="cls-6" d="M460.16,295.37a1.64,1.64,0,0,1-3.28,0A1.64,1.64,0,0,1,460.16,295.37Z"/><path class="cls-6" d="M556.39,260.35a1.64,1.64,0,0,1-3.27,0A1.64,1.64,0,0,1,556.39,260.35Z"/><path class="cls-6" d="M546.28,184.11a1.64,1.64,0,0,1-3.28,0A1.64,1.64,0,0,1,546.28,184.11Z"/><path class="cls-6" d="M524,338.64a1.64,1.64,0,0,1-3.27,0A1.64,1.64,0,0,1,524,338.64Z"/><path class="cls-6" d="M737.29,217.08a1.64,1.64,0,0,1-3.27,0A1.64,1.64,0,0,1,737.29,217.08Z"/><path class="cls-6" d="M682.69,125.38a1.64,1.64,0,0,1-3.27,0A1.64,1.64,0,0,1,682.69,125.38Z"/><path class="cls-6" d="M539.41,346.4a1.64,1.64,0,0,1-3.28,0A1.64,1.64,0,0,1,539.41,346.4Z"/><path class="cls-7" d="M854.3,13.06c0,1.92-27.72,2.25-55,2.67-2,0-2-3.24,0-3.25C824.65,12.35,854.27,11.29,854.3,13.06Z"/><path class="cls-7" d="M845.58,55.1c-.76,1.77-26.22-9.29-51.33-20.09-1.86-.8-.51-3.77,1.36-2.94C818.81,42.33,846.27,53.47,845.58,55.1Z"/><path class="cls-7" d="M820.67,89.67c-1.41,1.31-20.2-19.13-38.75-39.19-1.38-1.49,1.06-3.66,2.43-2.15C801.39,67.13,822,88.47,820.67,89.67Z"/><path class="cls-7" d="M780.81,112.11c-1.84.57-9.88-26-17.88-52.14-.59-1.94,2.55-2.83,3.13-.87C773.24,83.43,782.5,111.58,780.81,112.11Z"/><path class="cls-7" d="M730.7,114.17c-1.89-.37,3.62-27.58,9-54.38.4-2,3.58-1.28,3.17.71C737.62,85.34,732.44,114.51,730.7,114.17Z"/><path class="cls-7" d="M691.64,97c-1.57-1.11,14.53-23.73,30.3-46,1.17-1.66,3.8.28,2.6,1.94C709.69,73.43,693.09,98,691.64,97Z"/><path class="cls-7" d="M662,63.64C661,62,685.2,48.32,709,34.81c1.76-1,3.32,1.86,1.53,2.86C688.31,50,662.86,65.18,662,63.64Z"/><path class="cls-7" d="M649.15,19.16C649,17.24,676.74,15.6,704,13.9c2-.13,2.16,3.13.12,3.24C678.8,18.47,649.26,20.93,649.15,19.16Z"/><path class="cls-7" d="M618.79-3.7c.2-3,43.43,1.76,86,6.31,3.16.33,2.7,5.43-.48,5.06C664.83,3,618.61-.93,618.79-3.7Z"/><path class="cls-7" d="M624.14,54.66c-1.11-2.81,40-17,80.43-31.09,3-1.05,4.76,3.76,1.73,4.78C668.63,41.06,625.16,57.25,624.14,54.66Z"/><path class="cls-7" d="M653.94,105.13c-2.2-2.07,28.89-32.48,59.4-62.52,2.26-2.23,5.91,1.36,3.61,3.58C688.34,73.8,656,107,653.94,105.13Z"/><path class="cls-7" d="M702.47,138c-2.88-.92,12.21-41.71,26.94-81.91,1.09-3,5.92-1.3,4.79,1.69C720.15,95,705.11,138.84,702.47,138Z"/><path class="cls-7" d="M760.38,146.93c-3,.4-6.8-42.93-10.69-85.56-.29-3.16,4.8-3.71,5.06-.52C758,100.47,763.14,146.57,760.38,146.93Z"/><path class="cls-7" d="M816.56,130.24c-2.53,1.64-24.51-35.89-46.27-72.76-1.61-2.74,2.75-5.41,4.35-2.64C794.5,89.28,818.9,128.73,816.56,130.24Z"/><path class="cls-7" d="M860.2,91.12c-1.59,2.56-37.51-22-73-46-2.63-1.78.17-6.06,2.8-4.24C822.73,63.54,861.66,88.76,860.2,91.12Z"/><path class="cls-7" d="M882.9,37.09c-.34,3-43.3-3.8-85.6-10.35-3.14-.48-2.44-5.55.71-5C837.24,28.19,883.22,34.33,882.9,37.09Z"/><path class="cls-7" d="M880.31-21.46c1,2.86-40.76,15.09-81.8,27.27-3,.91-4.58-4-1.51-4.85C835.23-10,879.41-24.09,880.31-21.46Z"/><path class="cls-7" d="M212.09,307.85c1.78-.15,2.82,25.47,3.92,50.67.09,1.87-2.92,2.05-3,.17C212.23,335.27,210.46,308,212.09,307.85Z"/><path class="cls-7" d="M241.64,311.92c1.71.51-6.72,24.72-14.94,48.57-.61,1.77-3.47.84-2.84-.94C231.71,337.48,240.08,311.45,241.64,311.92Z"/><path class="cls-7" d="M267.64,326.54c1.4,1.1-15.32,20.53-31.71,39.71-1.22,1.42-3.54-.5-2.3-1.92C249,346.67,266.36,325.52,267.64,326.54Z"/><path class="cls-7" d="M286.47,349.67c.89,1.54-21.79,13.48-44.07,25.31-1.66.88-3.11-1.76-1.44-2.63C261.77,361.58,285.64,348.26,286.47,349.67Z"/><path class="cls-7" d="M295.49,378.1c.27,1.76-25.21,4.55-50.28,7.38-1.86.21-2.25-2.78-.37-3C268.15,380.12,295.24,376.49,295.49,378.1Z"/><path class="cls-7" d="M293.46,407.86c-.39,1.74-25.12-5-49.48-11.58-1.81-.49-1.07-3.41.74-2.9C267.28,399.7,293.82,406.27,293.46,407.86Z"/><path class="cls-7" d="M280.65,434.8c-1,1.47-21.53-13.88-41.78-28.92-1.51-1.12.25-3.57,1.75-2.43C259.29,417.61,281.58,433.45,280.65,434.8Z"/><path class="cls-7" d="M258.86,455.16c-1.47,1-14.94-20.81-28.27-42.23-1-1.59,1.55-3.22,2.53-1.61C245.29,431.33,260.21,454.24,258.86,455.16Z"/><path class="cls-7" d="M231.11,466.11c-1.73.39-6.26-24.84-10.8-49.66-.33-1.84,2.62-2.43,2.94-.57C227.24,439,232.71,465.75,231.11,466.11Z"/><path class="cls-7" d="M201.29,466.12c-1.76-.27,3.28-25.4,8.16-50.16.37-1.84,3.33-1.3,3,.55C207.64,439.45,202.9,466.37,201.29,466.12Z"/><path class="cls-7" d="M173.53,455.19c-1.53-.9,12.38-22.43,26-43.67,1-1.58,3.58,0,2.54,1.59C189.23,432.7,175,456,173.53,455.19Z"/><path class="cls-7" d="M151.73,434.84c-1.1-1.4,19.74-16.33,40.2-31.09,1.52-1.1,3.32,1.32,1.78,2.41C174.57,419.68,152.74,436.13,151.73,434.84Z"/><path class="cls-7" d="M138.91,407.91c-.51-1.71,24.35-8,48.8-14.18,1.81-.46,2.6,2.45.77,2.9C165.72,402.18,139.37,409.48,138.91,407.91Z"/><path class="cls-7" d="M136.86,378.15c.15-1.77,25.57,1.54,50.6,4.72,1.85.23,1.52,3.23-.35,3C163.9,382.66,136.71,379.78,136.86,378.15Z"/><path class="cls-7" d="M147.72,346.51c.86-1.55,22.71,11.86,44.25,25,1.6,1,.08,3.58-1.52,2.58C170.56,361.68,146.93,348,147.72,346.51Z"/><path class="cls-7" d="M175.05,319.15c1.49-1,14.46,21.15,27.29,42.87.95,1.61-1.62,3.19-2.56,1.56C188.07,343.28,173.68,320,175.05,319.15Z"/><path class="cls-6" d="M12.32,391.81a1.64,1.64,0,0,1-3.28,0A1.64,1.64,0,0,1,12.32,391.81Z"/><path class="cls-6" d="M119.88,314.78a1.64,1.64,0,0,1-3.27,0A1.64,1.64,0,0,1,119.88,314.78Z"/></g><g id="fireworks"><path class="cls-7" d="M651.7,537.3c6,.28,8.86,0,14.64.12s10.59,1.45,14.13,1.93C675.65,533.69,657,533.76,651.7,537.3Z"/><path class="cls-6" d="M701.26,458.42c0,3-4.68,3-4.63,0S701.31,455.41,701.26,458.42Z"/><path class="cls-6" d="M689.62,453.87c0,3-4.68,3-4.64,0S689.67,450.86,689.62,453.87Z"/><path class="cls-6" d="M693.94,449.78c0,3-4.68,3-4.64,0S694,446.77,693.94,449.78Z"/><path class="cls-6" d="M709.59,453.41c0,3-4.69,3-4.64,0S709.63,450.4,709.59,453.41Z"/><path class="cls-6" d="M703,440.23c0,3-4.69,3-4.64,0S703.08,437.22,703,440.23Z"/><path class="cls-6" d="M715.54,434.32c.05,3-4.68,3-4.64,0S715.59,431.31,715.54,434.32Z"/><path class="cls-6" d="M736.91,421.36c.05,3-4.68,3-4.63,0S737,418.35,736.91,421.36Z"/><path class="cls-6" d="M737.37,441.82c0,3-4.68,3-4.64,0S737.41,438.81,737.37,441.82Z"/><path class="cls-6" d="M725.32,454.1c0,3-4.68,3-4.64,0S725.36,451.09,725.32,454.1Z"/><path class="cls-6" d="M732.37,460.92c0,3-4.69,3-4.64,0S732.41,457.91,732.37,460.92Z"/><path class="cls-6" d="M745.78,457.05c.05,3-4.68,3-4.64,0S745.83,454,745.78,457.05Z"/><path class="cls-6" d="M752.37,442.5c0,3-4.68,3-4.63,0S752.42,439.49,752.37,442.5Z"/><path class="cls-6" d="M755.1,456.82c0,3-4.68,3-4.64,0S755.15,453.82,755.1,456.82Z"/><path class="cls-6" d="M762.38,453.87c0,3-4.68,3-4.64,0S762.42,450.86,762.38,453.87Z"/><path class="cls-6" d="M762.38,438.18c0,3-4.68,3-4.64,0S762.42,435.17,762.38,438.18Z"/><path class="cls-6" d="M752.83,429.31c0,3-4.68,3-4.64,0S752.87,426.3,752.83,429.31Z"/><path class="cls-6" d="M769.65,430c.05,3-4.68,3-4.63,0S769.7,427,769.65,430Z"/><path class="cls-6" d="M777.16,438.86c0,3-4.69,3-4.64,0S777.2,435.85,777.16,438.86Z"/><path class="cls-6" d="M774.88,447.5c0,3-4.68,3-4.63,0S774.93,444.49,774.88,447.5Z"/><path class="cls-6" d="M785.34,436.36c0,3-4.68,3-4.64,0S785.39,433.35,785.34,436.36Z"/><path class="cls-6" d="M781.48,425.68c0,3-4.69,3-4.64,0S781.52,422.67,781.48,425.68Z"/><path class="cls-6" d="M791.48,414.76c0,3-4.68,3-4.64,0S791.52,411.75,791.48,414.76Z"/><path class="cls-6" d="M792.39,425.9c0,3-4.68,3-4.64,0S792.43,422.89,792.39,425.9Z"/><path class="cls-6" d="M798.76,431.36c0,3-4.69,3-4.64,0S798.8,428.35,798.76,431.36Z"/><path class="cls-6" d="M801.48,420.9c0,3-4.68,3-4.63,0S801.53,417.89,801.48,420.9Z"/><path class="cls-6" d="M799.44,407.71c0,3-4.68,3-4.64,0S799.48,404.71,799.44,407.71Z"/><path class="cls-6" d="M809.9,413.85c0,3-4.69,3-4.64,0S809.94,410.84,809.9,413.85Z"/><path class="cls-6" d="M818.54,403.62c0,3-4.69,3-4.64,0S818.58,400.61,818.54,403.62Z"/><path class="cls-6" d="M811.26,396.8c0,3-4.68,3-4.64,0S811.31,393.79,811.26,396.8Z"/><path class="cls-6" d="M806.26,389.07c0,3-4.68,3-4.64,0S806.3,386.06,806.26,389.07Z"/><path class="cls-6" d="M814.9,382c0,3-4.68,3-4.64,0S814.94,379,814.9,382Z"/><path class="cls-6" d="M822.63,385.43c0,3-4.68,3-4.64,0S822.67,382.42,822.63,385.43Z"/><path class="cls-6" d="M823.31,377.48c.05,3-4.68,3-4.64,0S823.36,374.47,823.31,377.48Z"/><path class="cls-6" d="M821,362c0,3-4.68,3-4.64,0S821.08,359,821,362Z"/><path class="cls-6" d="M811.85,351.19c0,3-4.69,3-4.64,0S811.89,348.18,811.85,351.19Z"/><path class="cls-6" d="M804,340.19c0,3-4.69,3-4.64,0S804,337.18,804,340.19Z"/><path class="cls-6" d="M816,337.5c0,3-4.69,3-4.64,0S816.08,334.5,816,337.5Z"/><path class="cls-6" d="M820.13,350c0,3-4.68,3-4.64,0S820.17,347,820.13,350Z"/><path class="cls-6" d="M825.89,355.89c0,3-4.68,3-4.64,0S825.93,352.88,825.89,355.89Z"/><path class="cls-6" d="M823.54,341.6c0,3-4.68,3-4.64,0S823.58,338.59,823.54,341.6Z"/><path class="cls-6" d="M778.07,336.78c0,3-4.69,3-4.64,0S778.11,333.77,778.07,336.78Z"/><path class="cls-6" d="M794.66,324.05c.05,3-4.68,3-4.63,0S794.71,321,794.66,324.05Z"/><path class="cls-6" d="M800.8,312.68c.05,3-4.68,3-4.64,0S800.85,309.67,800.8,312.68Z"/><path class="cls-6" d="M786.25,310.4c0,3-4.68,3-4.64,0S786.3,307.39,786.25,310.4Z"/><path class="cls-6" d="M789.21,301.31c0,3-4.69,3-4.64,0S789.25,298.3,789.21,301.31Z"/><path class="cls-6" d="M783,291.08c.05,3-4.68,3-4.64,0S783.07,288.07,783,291.08Z"/><path class="cls-6" d="M776.47,293.58c0,3-4.68,3-4.63,0S776.52,290.57,776.47,293.58Z"/><path class="cls-6" d="M769.65,283.12c.05,3-4.68,3-4.63,0S769.7,280.11,769.65,283.12Z"/><path class="cls-6" d="M759.65,288.8c0,3-4.68,3-4.64,0S759.69,285.8,759.65,288.8Z"/><path class="cls-6" d="M761.7,297.9c0,3-4.69,3-4.64,0S761.74,294.89,761.7,297.9Z"/><path class="cls-6" d="M749.87,290.17c0,3-4.68,3-4.63,0S749.92,287.16,749.87,290.17Z"/><path class="cls-6" d="M761.24,278.8c0,3-4.68,3-4.64,0S761.29,275.79,761.24,278.8Z"/><path class="cls-6" d="M750.56,278.8c0,3-4.69,3-4.64,0S750.6,275.79,750.56,278.8Z"/><path class="cls-6" d="M739.87,282.89c0,3-4.68,3-4.64,0S739.91,279.88,739.87,282.89Z"/><path class="cls-6" d="M736.41,274.94c.05,3-4.68,3-4.63,0S736.46,271.93,736.41,274.94Z"/><path class="cls-6" d="M728.68,279.71c.05,3-4.68,3-4.63,0S728.73,276.7,728.68,279.71Z"/><path class="cls-6" d="M724.64,272.66c0,3-4.69,3-4.64,0S724.68,269.65,724.64,272.66Z"/><path class="cls-6" d="M717.13,279.71c0,3-4.68,3-4.63,0S717.18,276.7,717.13,279.71Z"/><path class="cls-6" d="M709.86,277.44c0,3-4.68,3-4.64,0S709.9,274.43,709.86,277.44Z"/><path class="cls-6" d="M705.08,287.67c0,3-4.68,3-4.63,0S705.13,284.66,705.08,287.67Z"/><path class="cls-6" d="M696.22,282.67c0,3-4.69,3-4.64,0S696.26,279.66,696.22,282.67Z"/><path class="cls-6" d="M709.86,297.67c0,3-4.68,3-4.64,0S709.9,294.66,709.86,297.67Z"/><path class="cls-6" d="M723,291.53c.05,3-4.68,3-4.63,0S723.09,288.52,723,291.53Z"/><path class="cls-6" d="M801.48,301.08c0,3-4.68,3-4.63,0S801.53,298.07,801.48,301.08Z"/><path class="cls-6" d="M811.94,314.27c0,3-4.68,3-4.64,0S812,311.26,811.94,314.27Z"/><path class="cls-6" d="M811.94,325.86c0,3-4.68,3-4.64,0S812,322.86,811.94,325.86Z"/><path class="cls-6" d="M777.16,358.6c0,3-4.69,3-4.64,0S777.2,355.6,777.16,358.6Z"/><path class="cls-6" d="M767.84,368.84c0,3-4.69,3-4.64,0S767.88,365.83,767.84,368.84Z"/><path class="cls-6" d="M754.19,328.37c0,3-4.68,3-4.63,0S754.24,325.36,754.19,328.37Z"/><path class="cls-6" d="M736.73,304.72c0,3-4.68,3-4.64,0S736.78,301.71,736.73,304.72Z"/><path class="cls-6" d="M725.62,337.66c0,3-4.68,3-4.64,0S725.67,334.65,725.62,337.66Z"/><path class="cls-6" d="M735.63,362.21c0,3-4.69,3-4.64,0S735.67,359.2,735.63,362.21Z"/><path class="cls-6" d="M740.48,382.52c0,3-4.69,3-4.64,0S740.52,379.51,740.48,382.52Z"/><path class="cls-6" d="M714.71,383.74c0,3-4.68,3-4.64,0S714.75,380.73,714.71,383.74Z"/><path class="cls-6" d="M707.74,411c0,3-4.69,3-4.64,0S707.78,408,707.74,411Z"/><path class="cls-6" d="M693.18,428.6c.05,3-4.68,3-4.63,0S693.23,425.59,693.18,428.6Z"/><path class="cls-6" d="M682.68,401.42c0,3-4.68,3-4.64,0S682.73,398.41,682.68,401.42Z"/><path class="cls-6" d="M672,382.33c0,3-4.68,3-4.63,0S672,379.32,672,382.33Z"/><path class="cls-6" d="M681.06,365.05c0,3-4.68,3-4.64,0S681.1,362,681.06,365.05Z"/><path class="cls-6" d="M662.57,350.69c0,3-4.69,3-4.64,0S662.61,347.68,662.57,350.69Z"/><path class="cls-6" d="M671,329.09c0,3-4.68,3-4.64,0S671,326.08,671,329.09Z"/><path class="cls-6" d="M654.61,337.5c0,3-4.68,3-4.64,0S654.65,334.5,654.61,337.5Z"/><path class="cls-6" d="M656.2,323.86c0,3-4.68,3-4.64,0S656.25,320.85,656.2,323.86Z"/><path class="cls-6" d="M655.52,317.09c0,3-4.68,3-4.64,0S655.56,314.08,655.52,317.09Z"/><path class="cls-6" d="M648.47,327.55c0,3-4.68,3-4.64,0S648.51,324.54,648.47,327.55Z"/><path class="cls-6" d="M641.88,333.46c0,3-4.69,3-4.64,0S641.92,330.45,641.88,333.46Z"/><path class="cls-6" d="M640.74,342.55c0,3-4.68,3-4.64,0S640.78,339.54,640.74,342.55Z"/><path class="cls-6" d="M643.7,350.51c0,3-4.69,3-4.64,0S643.74,347.5,643.7,350.51Z"/><path class="cls-6" d="M638.24,355.06c0,3-4.68,3-4.64,0S638.28,352.05,638.24,355.06Z"/><path class="cls-6" d="M638.47,364.61c0,3-4.69,3-4.64,0S638.51,361.6,638.47,364.61Z"/><path class="cls-6" d="M647.56,361c.05,3-4.68,3-4.64,0S647.61,358,647.56,361Z"/><path class="cls-6" d="M649.38,378.25c0,3-4.68,3-4.64,0S649.42,375.24,649.38,378.25Z"/><path class="cls-6" d="M637.78,393c.05,3-4.68,3-4.63,0S637.83,390,637.78,393Z"/><path class="cls-6" d="M637.78,379.61c.05,3-4.68,3-4.63,0S637.83,376.6,637.78,379.61Z"/><path class="cls-6" d="M657.79,391c.05,3-4.68,3-4.64,0S657.84,388,657.79,391Z"/><path class="cls-6" d="M647.56,399.17c.05,3-4.68,3-4.64,0S647.61,396.16,647.56,399.17Z"/><path class="cls-6" d="M641.42,403c.05,3-4.68,3-4.64,0S641.47,400,641.42,403Z"/><path class="cls-6" d="M645.06,411.9c0,3-4.68,3-4.64,0S645.1,408.89,645.06,411.9Z"/><path class="cls-6" d="M652.79,413c0,3-4.68,3-4.64,0S652.83,410,652.79,413Z"/><path class="cls-6" d="M654.15,421.9c.05,3-4.68,3-4.63,0S654.2,418.89,654.15,421.9Z"/><path class="cls-6" d="M694.81,327.76c0,3-4.69,3-4.64,0S694.85,324.75,694.81,327.76Z"/><path class="cls-6" d="M673,308.36c0,3-4.68,3-4.64,0S673,305.35,673,308.36Z"/><path class="cls-6" d="M663.89,311.09c0,3-4.69,3-4.64,0S663.93,308.08,663.89,311.09Z"/><path class="cls-6" d="M666.61,299.57c0,3-4.68,3-4.63,0S666.66,296.56,666.61,299.57Z"/><path class="cls-6" d="M676,293.5c0,3-4.68,3-4.64,0S676.06,290.49,676,293.5Z"/><path class="cls-6" d="M683.89,286.53c.05,3-4.68,3-4.63,0S683.94,283.52,683.89,286.53Z"/><path class="cls-6" d="M690.87,295.32c0,3-4.69,3-4.64,0S690.91,292.31,690.87,295.32Z"/><path class="cls-6" d="M673,417.19c0,3-4.68,3-4.64,0S673,414.18,673,417.19Z"/><path class="cls-6" d="M663.58,428.4c0,3-4.68,3-4.64,0S663.63,425.4,663.58,428.4Z"/><path class="cls-6" d="M674.5,427.19c0,3-4.69,3-4.64,0S674.54,424.18,674.5,427.19Z"/><path class="cls-6" d="M672.68,442.05c0,3-4.69,3-4.64,0S672.72,439,672.68,442.05Z"/><path class="cls-6" d="M666.31,436.59c0,3-4.68,3-4.64,0S666.36,433.58,666.31,436.59Z"/><path class="cls-6" d="M681.36,448.31c0,3-4.68,3-4.64,0S681.41,445.3,681.36,448.31Z"/><path class="cls-6" d="M807.62,377.48c0,3-4.68,3-4.63,0S807.67,374.47,807.62,377.48Z"/><path class="cls-6" d="M817,370c0,3-4.69,3-4.64,0S817,367,817,370Z"/><path class="cls-6" d="M804,363.83c0,3-4.69,3-4.64,0S804,360.82,804,363.83Z"/><path class="cls-6" d="M791.25,373.38c0,3-4.68,3-4.63,0S791.3,370.37,791.25,373.38Z"/><path class="cls-6" d="M786.48,391.12c0,3-4.68,3-4.64,0S786.52,388.11,786.48,391.12Z"/><path class="cls-6" d="M713,460.69c0,3-4.69,3-4.64,0S713,457.68,713,460.69Z"/><path class="cls-6" d="M118.94,116.66c0,3.82-6,3.82-5.9,0S119,112.83,118.94,116.66Z"/><path class="cls-6" d="M104.13,110.87c.06,3.83-5.95,3.83-5.9,0S104.19,107.05,104.13,110.87Z"/><path class="cls-6" d="M109.63,105.67c.05,3.82-6,3.82-5.9,0S109.68,101.84,109.63,105.67Z"/><path class="cls-6" d="M129.52,110.29c.06,3.83-6,3.83-5.9,0S129.58,106.47,129.52,110.29Z"/><path class="cls-6" d="M121.19,93.52c.06,3.83-6,3.83-5.89,0S121.25,89.7,121.19,93.52Z"/><path class="cls-6" d="M137.1,86c.05,3.83-6,3.83-5.9,0S137.15,82.18,137.1,86Z"/><path class="cls-6" d="M164.28,69.52c.06,3.83-6,3.83-5.9,0S164.34,65.7,164.28,69.52Z"/><path class="cls-6" d="M164.86,95.55c0,3.82-6,3.82-5.9,0S164.91,91.72,164.86,95.55Z"/><path class="cls-6" d="M149.53,111.16c.06,3.83-5.95,3.83-5.9,0S149.59,107.34,149.53,111.16Z"/><path class="cls-6" d="M158.5,119.84c.05,3.82-6,3.82-5.9,0S158.55,116,158.5,119.84Z"/><path class="cls-6" d="M175.56,114.92c.05,3.83-6,3.83-5.9,0S175.61,111.09,175.56,114.92Z"/><path class="cls-6" d="M183.94,96.41c.06,3.83-5.95,3.83-5.9,0S184,92.59,183.94,96.41Z"/><path class="cls-6" d="M187.41,114.63c.06,3.83-5.95,3.83-5.9,0S187.47,110.81,187.41,114.63Z"/><path class="cls-6" d="M196.67,110.87c.05,3.83-6,3.83-5.9,0S196.72,107.05,196.67,110.87Z"/><path class="cls-6" d="M196.67,90.92c.05,3.83-6,3.83-5.9,0S196.72,87.09,196.67,90.92Z"/><path class="cls-6" d="M184.52,79.64c.06,3.83-6,3.83-5.9,0S184.58,75.82,184.52,79.64Z"/><path class="cls-6" d="M205.92,80.51c.06,3.83-6,3.83-5.9,0S206,76.68,205.92,80.51Z"/><path class="cls-6" d="M215.46,91.79c.06,3.82-6,3.83-5.9,0S215.52,88,215.46,91.79Z"/><path class="cls-6" d="M212.57,102.78c.06,3.82-6,3.82-5.9,0S212.63,99,212.57,102.78Z"/><path class="cls-6" d="M225.87,88.61c.06,3.82-6,3.82-5.9,0S225.93,84.78,225.87,88.61Z"/><path class="cls-6" d="M221,75c0,3.82-6,3.82-5.9,0S221,71.19,221,75Z"/><path class="cls-6" d="M233.68,61.14c0,3.82-6,3.82-5.9,0S233.74,57.31,233.68,61.14Z"/><path class="cls-6" d="M234.84,75.31c0,3.82-6,3.82-5.9,0S234.89,71.48,234.84,75.31Z"/><path class="cls-6" d="M242.93,82.25c.06,3.82-6,3.82-5.9,0S243,78.42,242.93,82.25Z"/><path class="cls-6" d="M246.4,68.94c.06,3.83-6,3.83-5.9,0S246.46,65.12,246.4,68.94Z"/><path class="cls-6" d="M243.8,52.17c.06,3.83-6,3.83-5.9,0S243.86,48.35,243.8,52.17Z"/><path class="cls-6" d="M257.1,60c.06,3.83-6,3.83-5.9,0S257.16,56.15,257.1,60Z"/><path class="cls-6" d="M268.09,47c.06,3.82-6,3.82-5.9,0S268.15,43.14,268.09,47Z"/><path class="cls-6" d="M258.84,38.29c.05,3.83-6,3.83-5.9,0S258.89,34.47,258.84,38.29Z"/><path class="cls-6" d="M252.47,28.46c.06,3.83-5.95,3.83-5.89,0S252.53,24.63,252.47,28.46Z"/><path class="cls-6" d="M263.46,19.5c.06,3.82-5.95,3.82-5.9,0S263.52,15.67,263.46,19.5Z"/><path class="cls-6" d="M273.29,23.83c.06,3.83-6,3.83-5.89,0S273.35,20,273.29,23.83Z"/><path class="cls-6" d="M274.16,13.71c.06,3.83-6,3.83-5.9,0S274.22,9.89,274.16,13.71Z"/><path class="cls-6" d="M179.13,28c.06,3.83-5.95,3.83-5.9,0S179.19,24.17,179.13,28Z"/><path class="cls-6" d="M127.17,56.38c.06,3.82-6,3.82-5.9,0S127.23,52.55,127.17,56.38Z"/><path class="cls-6" d="M108.66,78.74c.06,3.82-6,3.82-5.9,0S108.72,74.91,108.66,78.74Z"/><path class="cls-6" d="M120.57,19c.06,3.83-5.95,3.83-5.89,0S120.63,15.18,120.57,19Z"/><path class="cls-6" d="M81.68,19.88c0,3.83-6,3.83-5.9,0S81.73,16.06,81.68,19.88Z"/><path class="cls-6" d="M93.24-2.09c.06,3.82-5.95,3.82-5.9,0S93.3-5.92,93.24-2.09Z"/><path class="cls-6" d="M39.07-2.65c.06,3.82-6,3.82-5.9,0S39.13-6.48,39.07-2.65Z"/><path class="cls-6" d="M53,14.7c.06,3.82-6,3.82-5.9,0S53,10.87,53,14.7Z"/><path class="cls-6" d="M38.2,33.49c.06,3.83-6,3.83-5.89,0S38.26,29.67,38.2,33.49Z"/><path class="cls-6" d="M38.2,16.43c.06,3.83-6,3.83-5.89,0S38.26,12.61,38.2,16.43Z"/><path class="cls-6" d="M63.65,30.89c.06,3.83-5.95,3.83-5.9,0S63.71,27.06,63.65,30.89Z"/><path class="cls-6" d="M50.64,41.3c0,3.83-6,3.83-5.9,0S50.69,37.47,50.64,41.3Z"/><path class="cls-6" d="M42.83,46.22c.06,3.82-5.95,3.82-5.9,0S42.89,42.39,42.83,46.22Z"/><path class="cls-6" d="M47.46,57.49c0,3.83-6,3.83-5.9,0S47.51,53.67,47.46,57.49Z"/><path class="cls-6" d="M57.29,58.94c.06,3.83-6,3.83-5.9,0S57.35,55.11,57.29,58.94Z"/><path class="cls-6" d="M59,70.22c.06,3.82-6,3.82-5.89,0S59.08,66.39,59,70.22Z"/><path class="cls-6" d="M83,64.22c0,3.83-6,3.83-5.9,0S83,60.39,83,64.22Z"/><path class="cls-6" d="M71,78.49c.06,3.82-6,3.82-5.89,0S71.07,74.66,71,78.49Z"/><path class="cls-6" d="M84.89,76.94c.06,3.83-6,3.83-5.89,0S85,73.12,84.89,76.94Z"/><path class="cls-6" d="M82.58,95.84c.06,3.82-6,3.82-5.9,0S82.64,92,82.58,95.84Z"/><path class="cls-6" d="M74.48,88.9c.06,3.82-6,3.82-5.89,0S74.54,85.07,74.48,88.9Z"/><path class="cls-6" d="M93.63,103.8c.05,3.82-6,3.82-5.9,0S93.68,100,93.63,103.8Z"/><path class="cls-6" d="M254.21,13.71c.06,3.83-6,3.83-5.9,0S254.27,9.89,254.21,13.71Z"/><path class="cls-6" d="M266.07,4.17c.05,3.83-6,3.83-5.9,0S266.12.34,266.07,4.17Z"/><path class="cls-6" d="M233.39,8.51c.06,3.83-6,3.83-5.9,0S233.45,4.68,233.39,8.51Z"/><path class="cls-6" d="M227.32,31.06c.05,3.83-6,3.83-5.9,0S227.37,27.24,227.32,31.06Z"/><path class="cls-6" d="M133.86,119.55c.06,3.82-6,3.82-5.9,0S133.92,115.72,133.86,119.55Z"/><path class="cls-6" d="M78.39,291.8c0,2.4-3.74,2.4-3.7,0S78.42,289.4,78.39,291.8Z"/><path class="cls-6" d="M69.1,288.17c0,2.4-3.74,2.4-3.7,0S69.13,285.77,69.1,288.17Z"/><path class="cls-6" d="M72.55,284.9c0,2.41-3.74,2.41-3.71,0S72.58,282.5,72.55,284.9Z"/><path class="cls-6" d="M85,287.81c0,2.4-3.74,2.4-3.7,0S85.07,285.41,85,287.81Z"/><path class="cls-6" d="M79.8,277.28c0,2.4-3.73,2.4-3.7,0S79.84,274.88,79.8,277.28Z"/><path class="cls-6" d="M89.79,272.57c0,2.4-3.74,2.4-3.71,0S89.82,270.16,89.79,272.57Z"/><path class="cls-6" d="M106.84,262.22c0,2.4-3.74,2.4-3.7,0S106.88,259.82,106.84,262.22Z"/><path class="cls-6" d="M107.21,278.55c0,2.4-3.74,2.4-3.71,0S107.24,276.15,107.21,278.55Z"/><path class="cls-6" d="M97.59,288.35c0,2.4-3.74,2.4-3.7,0S97.62,286,97.59,288.35Z"/><path class="cls-6" d="M103.21,293.8c0,2.4-3.73,2.4-3.7,0S103.25,291.39,103.21,293.8Z"/><path class="cls-6" d="M113.92,290.71c0,2.4-3.74,2.4-3.7,0S114,288.31,113.92,290.71Z"/><path class="cls-6" d="M119.18,279.1c0,2.4-3.74,2.4-3.7,0S119.22,276.7,119.18,279.1Z"/><path class="cls-6" d="M121.36,290.53c0,2.4-3.74,2.4-3.7,0S121.39,288.13,121.36,290.53Z"/><path class="cls-6" d="M127.17,288.17c0,2.4-3.74,2.4-3.71,0S127.2,285.77,127.17,288.17Z"/><path class="cls-6" d="M127.17,275.65c0,2.4-3.74,2.4-3.71,0S127.2,273.25,127.17,275.65Z"/><path class="cls-6" d="M119.54,268.57c0,2.4-3.73,2.4-3.7,0S119.58,266.17,119.54,268.57Z"/><path class="cls-6" d="M133,269.12c0,2.4-3.74,2.4-3.7,0S133,266.72,133,269.12Z"/><path class="cls-6" d="M139,276.19c0,2.41-3.74,2.41-3.7,0S139,273.79,139,276.19Z"/><path class="cls-6" d="M137.15,283.09c0,2.4-3.74,2.4-3.71,0S137.18,280.69,137.15,283.09Z"/><path class="cls-6" d="M145.49,274.2c0,2.4-3.73,2.4-3.7,0S145.53,271.8,145.49,274.2Z"/><path class="cls-6" d="M142.41,265.67c0,2.4-3.74,2.4-3.7,0S142.44,263.27,142.41,265.67Z"/><path class="cls-6" d="M150.39,257c0,2.4-3.73,2.4-3.7,0S150.43,254.56,150.39,257Z"/><path class="cls-6" d="M151.12,265.85c0,2.4-3.74,2.4-3.7,0S151.15,263.45,151.12,265.85Z"/><path class="cls-6" d="M156.2,270.21c0,2.4-3.74,2.4-3.7,0S156.23,267.8,156.2,270.21Z"/><path class="cls-6" d="M158.38,261.86c0,2.4-3.74,2.4-3.71,0S158.41,259.46,158.38,261.86Z"/><path class="cls-6" d="M156.74,251.33c0,2.41-3.73,2.41-3.7,0S156.78,248.93,156.74,251.33Z"/><path class="cls-6" d="M165.09,256.23c0,2.41-3.74,2.41-3.7,0S165.13,253.83,165.09,256.23Z"/><path class="cls-6" d="M172,248.07c0,2.4-3.74,2.4-3.71,0S172,245.67,172,248.07Z"/><path class="cls-6" d="M166.18,242.62c0,2.41-3.74,2.41-3.7,0S166.21,240.22,166.18,242.62Z"/><path class="cls-6" d="M162.19,236.46c0,2.4-3.74,2.4-3.7,0S162.22,234.05,162.19,236.46Z"/><path class="cls-6" d="M169.08,230.83c0,2.4-3.73,2.4-3.7,0S169.12,228.43,169.08,230.83Z"/><path class="cls-6" d="M175.25,233.55c0,2.4-3.74,2.4-3.7,0S175.29,231.15,175.25,233.55Z"/><path class="cls-6" d="M175.8,227.2c0,2.4-3.74,2.4-3.71,0S175.83,224.8,175.8,227.2Z"/><path class="cls-6" d="M174,214.86c0,2.4-3.74,2.4-3.7,0S174,212.46,174,214.86Z"/><path class="cls-6" d="M166.65,206.22c0,2.4-3.74,2.4-3.71,0S166.68,203.82,166.65,206.22Z"/><path class="cls-6" d="M160.37,197.44c0,2.4-3.73,2.4-3.7,0S160.41,195,160.37,197.44Z"/><path class="cls-6" d="M170,195.3c0,2.4-3.74,2.4-3.7,0S170,192.9,170,195.3Z"/><path class="cls-6" d="M173.26,205.28c0,2.4-3.74,2.4-3.71,0S173.29,202.88,173.26,205.28Z"/><path class="cls-6" d="M177.85,210c0,2.41-3.73,2.41-3.7,0S177.89,207.57,177.85,210Z"/><path class="cls-6" d="M176,198.57c0,2.4-3.74,2.4-3.7,0S176,196.17,176,198.57Z"/><path class="cls-6" d="M139.69,194.72c0,2.4-3.74,2.4-3.71,0S139.72,192.32,139.69,194.72Z"/><path class="cls-6" d="M152.93,184.56c0,2.4-3.73,2.4-3.7,0S153,182.16,152.93,184.56Z"/><path class="cls-6" d="M157.83,175.48c0,2.41-3.74,2.41-3.7,0S157.87,173.08,157.83,175.48Z"/><path class="cls-6" d="M146.22,173.67c0,2.4-3.74,2.4-3.7,0S146.25,171.27,146.22,173.67Z"/><path class="cls-6" d="M148.58,166.41c0,2.4-3.74,2.4-3.7,0S148.61,164,148.58,166.41Z"/><path class="cls-6" d="M143.64,158.25c0,2.4-3.74,2.4-3.7,0S143.68,155.84,143.64,158.25Z"/><path class="cls-6" d="M138.42,160.24c0,2.4-3.74,2.4-3.71,0S138.45,157.84,138.42,160.24Z"/><path class="cls-6" d="M133,151.9c0,2.4-3.74,2.4-3.7,0S133,149.49,133,151.9Z"/><path class="cls-6" d="M125,156.43c0,2.4-3.74,2.4-3.7,0S125,154,125,156.43Z"/><path class="cls-6" d="M126.62,163.69c0,2.4-3.74,2.4-3.7,0S126.66,161.29,126.62,163.69Z"/><path class="cls-6" d="M117.19,157.52c0,2.4-3.74,2.4-3.71,0S117.22,155.12,117.19,157.52Z"/><path class="cls-6" d="M126.26,148.45c0,2.4-3.74,2.4-3.7,0S126.29,146.05,126.26,148.45Z"/><path class="cls-6" d="M117.73,148.45c0,2.4-3.74,2.4-3.7,0S117.77,146.05,117.73,148.45Z"/><path class="cls-6" d="M109.2,151.71c0,2.41-3.74,2.41-3.7,0S109.24,149.31,109.2,151.71Z"/><path class="cls-6" d="M106.44,145.36c0,2.4-3.73,2.4-3.7,0S106.48,143,106.44,145.36Z"/><path class="cls-6" d="M100.27,149.17c0,2.4-3.73,2.4-3.7,0S100.31,146.77,100.27,149.17Z"/><path class="cls-6" d="M97,143.55c0,2.4-3.73,2.4-3.7,0S97.08,141.15,97,143.55Z"/><path class="cls-6" d="M91.06,149.17c0,2.4-3.74,2.4-3.71,0S91.09,146.77,91.06,149.17Z"/><path class="cls-6" d="M85.25,147.36c0,2.4-3.74,2.4-3.7,0S85.28,145,85.25,147.36Z"/><path class="cls-6" d="M81.44,155.52c0,2.41-3.74,2.41-3.7,0S81.47,153.12,81.44,155.52Z"/><path class="cls-6" d="M74.36,151.53c0,2.4-3.74,2.4-3.7,0S74.4,149.13,74.36,151.53Z"/><path class="cls-6" d="M85.25,163.51c0,2.4-3.74,2.4-3.7,0S85.28,161.11,85.25,163.51Z"/><path class="cls-6" d="M95.77,158.61c0,2.4-3.73,2.4-3.7,0S95.81,156.21,95.77,158.61Z"/><path class="cls-6" d="M158.38,166.23c0,2.4-3.74,2.4-3.71,0S158.41,163.83,158.38,166.23Z"/><path class="cls-6" d="M166.72,176.76c0,2.4-3.73,2.4-3.7,0S166.76,174.35,166.72,176.76Z"/><path class="cls-6" d="M166.72,186c0,2.4-3.73,2.4-3.7,0S166.76,183.61,166.72,186Z"/><path class="cls-6" d="M139,212.14c0,2.4-3.74,2.4-3.7,0S139,209.74,139,212.14Z"/><path class="cls-6" d="M131.52,220.31c0,2.4-3.74,2.4-3.7,0S131.56,217.9,131.52,220.31Z"/><path class="cls-6" d="M120.63,188c0,2.4-3.73,2.4-3.7,0S120.67,185.6,120.63,188Z"/><path class="cls-6" d="M106.7,169.13c0,2.41-3.74,2.41-3.7,0S106.73,166.73,106.7,169.13Z"/><path class="cls-6" d="M97.83,195.42c0,2.4-3.74,2.4-3.7,0S97.87,193,97.83,195.42Z"/><path class="cls-6" d="M105.81,215c0,2.4-3.73,2.4-3.7,0S105.85,212.62,105.81,215Z"/><path class="cls-6" d="M109.68,231.23c0,2.4-3.73,2.4-3.7,0S109.72,228.83,109.68,231.23Z"/><path class="cls-6" d="M89.12,232.2c0,2.4-3.74,2.4-3.7,0S89.16,229.8,89.12,232.2Z"/><path class="cls-6" d="M83.55,254c0,2.4-3.73,2.4-3.7,0S83.59,251.57,83.55,254Z"/><path class="cls-6" d="M71.94,268c0,2.41-3.74,2.41-3.7,0S72,265.6,71.94,268Z"/><path class="cls-6" d="M63.56,246.31c0,2.41-3.74,2.41-3.7,0S63.59,243.91,63.56,246.31Z"/><path class="cls-6" d="M55,231.07c0,2.4-3.74,2.4-3.71,0S55,228.67,55,231.07Z"/><path class="cls-6" d="M62.26,217.28c0,2.4-3.73,2.4-3.7,0S62.3,214.88,62.26,217.28Z"/><path class="cls-6" d="M47.51,205.82c0,2.41-3.74,2.41-3.71,0S47.54,203.42,47.51,205.82Z"/><path class="cls-6" d="M54.22,188.59c0,2.4-3.74,2.4-3.7,0S54.25,186.18,54.22,188.59Z"/><path class="cls-6" d="M41.15,195.3c0,2.4-3.73,2.4-3.7,0S41.19,192.9,41.15,195.3Z"/><path class="cls-6" d="M42.42,184.41c0,2.4-3.73,2.4-3.7,0S42.46,182,42.42,184.41Z"/><path class="cls-6" d="M41.88,179c0,2.4-3.74,2.4-3.7,0S41.92,176.6,41.88,179Z"/><path class="cls-6" d="M36.25,187.35c0,2.4-3.73,2.4-3.7,0S36.29,185,36.25,187.35Z"/><path class="cls-6" d="M31,192.07c0,2.4-3.73,2.4-3.7,0S31,189.67,31,192.07Z"/><path class="cls-6" d="M30.09,199.33c0,2.4-3.74,2.4-3.71,0S30.12,196.93,30.09,199.33Z"/><path class="cls-6" d="M32.44,205.68c0,2.4-3.73,2.4-3.7,0S32.48,203.28,32.44,205.68Z"/><path class="cls-6" d="M28.09,209.31c0,2.4-3.74,2.4-3.7,0S28.12,206.91,28.09,209.31Z"/><path class="cls-6" d="M28.27,216.93c0,2.4-3.74,2.4-3.7,0S28.31,214.53,28.27,216.93Z"/><path class="cls-6" d="M35.53,214c0,2.4-3.74,2.4-3.7,0S35.56,211.63,35.53,214Z"/><path class="cls-6" d="M37,227.82c0,2.4-3.74,2.4-3.7,0S37,225.42,37,227.82Z"/><path class="cls-6" d="M27.73,239.61c0,2.4-3.74,2.4-3.71,0S27.76,237.21,27.73,239.61Z"/><path class="cls-6" d="M27.73,228.91c0,2.4-3.74,2.4-3.71,0S27.76,226.5,27.73,228.91Z"/><path class="cls-6" d="M43.69,238c0,2.4-3.73,2.4-3.7,0S43.73,235.58,43.69,238Z"/><path class="cls-6" d="M35.53,244.51c0,2.4-3.74,2.4-3.7,0S35.56,242.11,35.53,244.51Z"/><path class="cls-6" d="M30.63,247.6c0,2.4-3.74,2.4-3.7,0S30.66,245.2,30.63,247.6Z"/><path class="cls-6" d="M33.53,254.67c0,2.4-3.73,2.4-3.7,0S33.57,252.27,33.53,254.67Z"/><path class="cls-6" d="M39.7,255.58c0,2.4-3.73,2.4-3.7,0S39.74,253.18,39.7,255.58Z"/><path class="cls-6" d="M40.79,262.66c0,2.4-3.74,2.4-3.7,0S40.83,260.26,40.79,262.66Z"/><path class="cls-6" d="M73.24,187.52c0,2.4-3.74,2.4-3.71,0S73.27,185.12,73.24,187.52Z"/><path class="cls-6" d="M55.82,172c0,2.4-3.74,2.4-3.71,0S55.85,169.64,55.82,172Z"/><path class="cls-6" d="M48.56,174.21c0,2.41-3.74,2.41-3.7,0S48.59,171.81,48.56,174.21Z"/><path class="cls-6" d="M50.74,165c0,2.4-3.74,2.4-3.71,0S50.77,162.62,50.74,165Z"/><path class="cls-6" d="M58.24,160.18c0,2.4-3.74,2.4-3.71,0S58.27,157.78,58.24,160.18Z"/><path class="cls-6" d="M64.53,154.62c0,2.4-3.74,2.4-3.71,0S64.56,152.22,64.53,154.62Z"/><path class="cls-6" d="M70.09,161.63c0,2.41-3.74,2.41-3.7,0S70.13,159.23,70.09,161.63Z"/><path class="cls-6" d="M55.82,258.9c0,2.4-3.74,2.4-3.71,0S55.85,256.49,55.82,258.9Z"/><path class="cls-6" d="M48.32,267.85c0,2.4-3.74,2.4-3.71,0S48.35,265.45,48.32,267.85Z"/><path class="cls-6" d="M57,266.88c0,2.4-3.74,2.4-3.71,0S57.06,264.48,57,266.88Z"/><path class="cls-6" d="M55.57,278.73c0,2.41-3.73,2.41-3.7,0S55.61,276.33,55.57,278.73Z"/><path class="cls-6" d="M50.49,274.38c0,2.4-3.73,2.4-3.7,0S50.53,272,50.49,274.38Z"/><path class="cls-6" d="M62.51,283.73c0,2.4-3.74,2.4-3.71,0S62.54,281.33,62.51,283.73Z"/><path class="cls-6" d="M163.28,227.2c0,2.4-3.74,2.4-3.71,0S163.31,224.8,163.28,227.2Z"/><path class="cls-6" d="M170.72,221.21c0,2.4-3.74,2.4-3.71,0S170.75,218.81,170.72,221.21Z"/><path class="cls-6" d="M160.37,216.31c0,2.4-3.73,2.4-3.7,0S160.41,213.91,160.37,216.31Z"/><path class="cls-6" d="M150.21,223.93c0,2.41-3.74,2.41-3.7,0S150.25,221.53,150.21,223.93Z"/><path class="cls-6" d="M146.4,238.09c0,2.4-3.74,2.4-3.7,0S146.44,235.69,146.4,238.09Z"/><path class="cls-6" d="M87.75,293.61c0,2.41-3.73,2.41-3.7,0S87.79,291.21,87.75,293.61Z"/><path class="cls-6" d="M550.46,128.91a1.87,1.87,0,0,0,.41-3.69l-62.19-14.1c1.85-.82,58.26,12.29,58,7.83-4.52-6.49-94.16-14.17-98.65-20.61.52-1.53,94.15,17.32,79.46,7.44l-22.43-3.16,28.42,2.27c2.41.24,2.73-3.57.3-3.72l-7.34-.59,16.94.69c11-5-66.22-4-64.29-5.13l66.42-2.45a1.87,1.87,0,0,0-.14-3.73l-64.76,2.38,58.24-6.66a1.87,1.87,0,0,0,1.64-2.07c1.44-4.34-49.18,4.73-50.13,3.85.54-.73,29.65-4.7,27.89-7.09a1.25,1.25,0,0,0-1.48-1l-35.94,7.51C508.92,78,547.93,71.4,540.86,68c-.19,0-.6,0-56.08,15.27,24.56-8.34,44.32-10.48,45.08-15.07-1.63-3.61-9.56,1.56-23.47,4.84,13.13-5.83,38.87-12.67,28.07-15-14.94,6.29-60.85,23.33-79.82,28.77l78-34.29a1.86,1.86,0,0,0,1-2.46c.16-4.49-37.23,15.33-38.39,14.84.36-.79,23.11-9.64,20.8-11.43-.14-2.92-23.8,10.78-24.66,10.53.43-1.29,40.43-19.44,36.78-22.08a1.87,1.87,0,0,0-2.53-.76L457.82,77.92l56.42-35.73a1.87,1.87,0,1,0-2-3.16L466.61,67.92l51.9-36a1.87,1.87,0,1,0-2.13-3.07l-51.07,35.4,45.91-37.22c7.52-15.86-57.78,44-56.82,41.26-1.24-.93,65.92-56.81,49.56-51.87l-42.8,40.35C472.23,42.28,491.52,26,482.84,26.43c-.4.13-.72.24-14.73,16.51-.09-1.4,29.05-33.82,24.67-34.82-2.48-2.18-5.7,5.07-7.09,6.09a1.88,1.88,0,0,0-3.35-.94l-22.71,30.1L485.38,5.24c2.73-17.92-48.3,67.72-48.06,64.5L476,6.16a1.87,1.87,0,0,0-.63-2.56c-2.16-4.22-24.18,37.86-25.26,37.89C459,19.1,478.08-10.88,469.19-7.57c-.27.18-.51.35-4.72,9.26a1.88,1.88,0,0,0-3.56-.45l-17.84,40.7L455.8,2.57c.78-2.3-2.84-3.48-3.56-1.15L443.64,28l10-35.31c-2.29-11.95-19.95,66-20.62,63.78l12.44-54.1c.58-2.35-3.14-3.21-3.65-.84l-8.94,38.89c1.15-17,6.52-34.66,11.47-49.81a1.87,1.87,0,0,0-1.18-2.37c-4.09-.07-3.66,7.74-5.41,10.82.39-7.36,4-15.92-1.81-12.84-.27.37-.59.79-4.94,37.86-1.6,6.52-3.11,13.08-4.51,19.51-.92-.84,6.39-57.57,2.08-55.51-4-2.48-4.32,47.76-5.32,48.41l-1.55-53a1.88,1.88,0,0,0-1.93-1.81,1.87,1.87,0,0,0-1.81,1.92c.83,21,1.45,50.9.31,71.93-2.16-31.46.55-63.18-3.84-64.85-4.51,1,.34,35.32.19,67.78-4.9-34.29-7-72.36-10-76.29-5.77,3.17-1.49-1.42,5.71,71.89q-.69-2.77-1.43-5.51L396-15.38c-.44-2.37-4.18-1.65-3.66.73l5.69,28.35c-5.31-15.22-9.64-25.6-9.74-25.84-.91-2.25-4.42-.77-3.45,1.45.06.13,1.33,3.19,3.32,8.34-6.34-1.24,15.13,40.26,20.71,78.8-8.11-26.14-12.73-55-16.9-57.72-4.22,3.44-1.56-.3,10.4,48-12.88-29.42-28.82-87.44-32.48-76,0,.36,0,.75,17.86,47.94L369.72-.13C360.29-7.65,395.78,59,393.89,57.8c-1.38.57-37.35-78.63-36.76-61.34l14.75,27.81c-5.7-8.2-9.18-20-12-13.48,0,.56,0,1,22,37.51-14.48-20.13-32.58-54.74-32.3-42.08.4.6,24.83,37.52,44.56,67.46-23-27.53-55.49-77.52-53.88-63.34.42.54,31.44,40.39,55,71-28.45-31.5-66-73-65.21-64.39.43.41,35.18,33.06,62.73,65.32-22.61-22.89-51.52-55.08-49.92-46.3.38.35,29.87,27.74,53.08,53.43L364.47,57.93a1.25,1.25,0,0,0-1.77,0c-2.93,1,26.49,27.23,26.4,28.05-25.71-17.9-71-56.65-65.81-43.65.54.39,35.17,25.08,62.71,46L317,43.84A1.87,1.87,0,0,0,315,47L380.7,89.36,309.2,53.54a1.88,1.88,0,0,0-2.51.83c-2.93,3.34,50.42,26.16,51.16,27.73L304,62.06c-2.25-.87-3.59,2.69-1.3,3.51l7.81,2.9a1.87,1.87,0,0,0,.41,3.3l17.59,6.41c-2.39,2.08,2.45,2.84,3.62,3.32-.75.45-31.67-10.16-31.18-7.21-1.13,3.37,80.7,22.07,81.62,23.56l3.93,1.42c-.5,1.41-96.79-25.73-88.43-17.84l62.05,14.32L297,87c-2.39-.37-2.93,3.41-.52,3.71l10.93,1.52a1.87,1.87,0,0,0-.8,3.3l-13.11-1.13c-17.67,6.4,93.55,10.17,90.3,11.6-.39,1.67-104.6-1.75-88,5.73l27-.61c-1.17,1-40.61-.8-38.91,3.21-1.94,4.12,41.82-.48,42.64.4l-29.94,2.67c-2.31.17-2.14,3.78.17,3.74.15,0,11-1,11.2-1l-21.2,2.27c-2.42.22-2,4,.4,3.72L343.9,120c-30.52,7.32-59.49,12.65-50.34,16.88a557.68,557.68,0,0,1,76.61-18c-50.16,12.88-93.64,25.35-81.5,28.61.46-.19,39.16-16.07,100.39-29l-.06.23c-46.38,14.19-110.73,41-96.38,42.72a631.49,631.49,0,0,1,77.79-33c-33.81,15.08-71.94,28.7-71,33.13,2.47,2.77,4.34-.65,12.11-3.5.07,6.12,8.54-1.74,20.55-6.8-15.62,9.19-26.27,12.54-26,15.73,2.8,2.4,48.42-27.44,78.25-38.43-37.51,19.29-83.22,43.6-74.69,44.86.41-.26,38.07-24.61,76.51-43-74.16,42.07-125.6,80.89-17.91,13.29-16.41,10.7-36.89,25.88-49.16,35.55-7.78,6.12-7.78,6.19-7.78,7.28.06,7.58,25.48-18.46,47.72-32.11-16,13.86-38.64,29.72-27.41,28.11.28-.24,19.06-16.85,39.48-33-11.62,11.88-27.49,22-20.17,23.26-12.72,13.79-28.16,25.26-23.35,26.61,2.94-1.82,28.56-28.86,49.1-48.64-20.43,23.5-46.15,52-46.48,52.35-2.13,13,25.24-24.11,45.2-45.19-39.13,48.3-39.27,48.7-39.39,49.05.29,11.32,27.4-30.72,49.64-55.76l-37.17,51.46a1.88,1.88,0,0,0,1.51,3c1.21,1,10.17-13.25,10.9-13.76l-14.65,21.65a1.88,1.88,0,0,0,1.55,2.91,1.85,1.85,0,0,0,1.55-.82L386,161.54c-11,19.32-23.46,42.27-33.5,63.54a1.87,1.87,0,0,0,3.38,1.6c8.65-18.33,19.12-37.92,28.88-55.34-9.93,24.45-25.22,48.32-19.37,49,3.27-1,10.53-22.49,22.41-46.68-9.17,24.91-27.44,62.66-17,54.05,1.13-3.58,20.05-52.36,32.25-81.53L383.81,206.3a1.87,1.87,0,0,0,1.23,2.35l-7,23.49c2.8,18.73,31.13-97,31.87-93.28a.53.53,0,0,1,.06.1c-22.6,97-22.6,97.46-22.6,97.72,5,11.59,12.63-45.21,22.62-81.3l-12.2,78.21a1.87,1.87,0,0,0,3.7.58l9-57.47-3.87,62.87a1.87,1.87,0,1,0,3.73.23l4.14-67.22,1.53,61.95a1.87,1.87,0,0,0,3.74-.09L418.18,174c4.74,26.5,3.92,56.76,8.41,57.54,3.68-1,.24-9.42-.29-21.3,4.05,21.7,2.5,36.86,6.72,37.5,4.44-2-4.48-45-10-80.87,4.76,21.67,9.32,49.34,9.38,49.71,8.92,10.39-3.44-37.15-7.3-57.4l0,0c13.66,45.19,17,75.41,17.07,75.72,8.54,9.06-.7-31.61-13.54-77a7.76,7.76,0,0,0,4.25-2l25.57,80a1.87,1.87,0,0,0,2.35,1.21c4.58.78-15.05-50.07-14.35-51.05,13.11,29.35,18.92,55.42,23.64,55.42,4-3-19.38-52.93-33.95-89.61.21-.34.42-.69.62-1L452.1,187c.93,2.25,4.42.76,3.44-1.46l-15.87-37.44,16.24,27.85,22.42,49.11a1.87,1.87,0,1,0,3.4-1.55l-37.27-81.63c1.66-.72,53.39,99.65,52.19,81.67l-33.38-57,7,10.33a1.88,1.88,0,0,0,3.39-1.34l24.87,33.61c15.3,8.17-38.06-55.35-35.55-54.34.8.54,8.32,10.06,9.42,9.48l17.45,19c1.61,1.8,4.42-.77,2.75-2.53l-33.46-36.46,57.44,51.91a1.87,1.87,0,0,0,2.51-2.77c-.42-.69-80.32-72-80.34-72.92,12.3,3.41,76.7,54.91,88,63.19a1.87,1.87,0,1,0,2.27-3L474.34,139c1.4-.23,43.85,32.55,44.65,28.08,3.82-2.34-37.89-26.88-38.12-28.17l52.82,31.52a1.87,1.87,0,0,0,2.57-.65c3.58-2.73-47.51-29.35-47.86-30.73l26.19,13.43c2.13,1.14,3.89-2.25,1.71-3.32l-13.47-6.91c5.33-3.07-44-23.37-44-24.72,56.26,15.76,77.87,42,82.83,40.15,2.12-6.53-36.65-26.61-51.1-32.74,1.44-.49,44.37,18.29,44.28,13.91a1.88,1.88,0,0,0-1.13-2.4l-71.82-25.77c56.46,14.67,85.87,29.37,88,29.8,8.76-3.58-19-11.95-53.62-23.84C496.65,116.72,550.07,129,550.46,128.91Z"/><path class="cls-6" d="M455.84,112.83l.3-.2,4,1.43C458.71,113.64,457.28,113.24,455.84,112.83Z"/><path class="cls-8" d="M310.29,92.89c0,2.94-4.56,2.94-4.52,0S310.34,90,310.29,92.89Z"/><path class="cls-8" d="M295.62,96.23c0,2.93-4.57,2.93-4.52,0S295.66,93.29,295.62,96.23Z"/><path class="cls-8" d="M298,109.83c0,2.94-4.56,2.94-4.52,0S298.06,106.9,298,109.83Z"/><path class="cls-8" d="M288,114.24c0,2.93-4.57,2.93-4.53,0S288.06,111.3,288,114.24Z"/><path class="cls-8" d="M299,119.24c0,2.93-4.56,2.93-4.52,0S299.06,116.3,299,119.24Z"/><path class="cls-8" d="M289.22,124.24c0,2.93-4.57,2.93-4.52,0S289.26,121.31,289.22,124.24Z"/><path class="cls-8" d="M295.82,135c0,2.94-4.57,2.94-4.52,0S295.86,132.11,295.82,135Z"/><path class="cls-8" d="M290.22,145.85c0,2.93-4.57,2.93-4.52,0S290.26,142.91,290.22,145.85Z"/><path class="cls-8" d="M294,159.85c0,2.94-4.57,2.94-4.52,0S294.06,156.92,294,159.85Z"/><path class="cls-8" d="M303.42,160.85c.05,2.94-4.56,2.94-4.52,0S303.47,157.92,303.42,160.85Z"/><path class="cls-8" d="M315.63,158.65c0,2.94-4.57,2.94-4.52,0S315.67,155.72,315.63,158.65Z"/><path class="cls-8" d="M329.5,143.31c0,2.94-4.57,2.94-4.52,0S329.54,140.38,329.5,143.31Z"/><path class="cls-8" d="M320.16,128.37c0,2.94-4.56,2.94-4.52,0S320.21,125.44,320.16,128.37Z"/><path class="cls-8" d="M337.24,116.37c0,2.93-4.57,2.93-4.53,0S337.28,113.44,337.24,116.37Z"/><path class="cls-8" d="M359.38,124.5c0,2.93-4.57,2.93-4.52,0S359.42,121.57,359.38,124.5Z"/><path class="cls-8" d="M386.59,108.49c0,2.94-4.57,2.94-4.52,0S386.63,105.56,386.59,108.49Z"/><path class="cls-8" d="M384.05,122.77c0,2.94-4.57,2.94-4.52,0S384.09,119.84,384.05,122.77Z"/><path class="cls-8" d="M388.85,85.16c0,2.93-4.57,2.93-4.52,0S388.89,82.22,388.85,85.16Z"/><path class="cls-8" d="M368.72,92.09c0,2.94-4.57,2.94-4.53,0S368.76,89.16,368.72,92.09Z"/><path class="cls-8" d="M335.64,93.16c0,2.93-4.57,2.93-4.53,0S335.68,90.23,335.64,93.16Z"/><path class="cls-8" d="M331.43,79.22c.05,2.94-4.56,2.94-4.52,0S331.48,76.29,331.43,79.22Z"/><path class="cls-8" d="M314.42,70.48c0,2.94-4.56,2.94-4.52,0S314.46,67.55,314.42,70.48Z"/><path class="cls-8" d="M304.42,74.62c.05,2.93-4.56,2.93-4.52,0S304.47,71.69,304.42,74.62Z"/><path class="cls-8" d="M300.62,80.22c.05,2.94-4.56,2.94-4.52,0S300.67,77.29,300.62,80.22Z"/><path class="cls-8" d="M299,88.83c0,2.93-4.56,2.93-4.52,0S299.06,85.89,299,88.83Z"/><path class="cls-8" d="M305.62,63.82c.05,2.93-4.56,2.93-4.52,0S305.67,60.88,305.62,63.82Z"/><path class="cls-8" d="M310.63,55.21c0,2.94-4.57,2.94-4.53,0S310.67,52.28,310.63,55.21Z"/><path class="cls-8" d="M318.56,44.07c.05,2.94-4.56,2.94-4.52,0S318.61,41.14,318.56,44.07Z"/><path class="cls-8" d="M326,41c0,2.94-4.56,2.94-4.52,0S326.08,38.08,326,41Z"/><path class="cls-8" d="M346,35c0,2.94-4.57,2.94-4.52,0S346.08,32.07,346,35Z"/><path class="cls-8" d="M332.31,15c0,2.93-4.57,2.93-4.53,0S332.35,12.06,332.31,15Z"/><path class="cls-8" d="M344,9.19c0,2.94-4.57,2.94-4.52,0S344.08,6.26,344,9.19Z"/><path class="cls-8" d="M353.44,5.19c.05,2.94-4.56,2.94-4.52,0S353.49,2.26,353.44,5.19Z"/><path class="cls-8" d="M364.05,10.79c0,2.94-4.57,2.94-4.53,0S364.09,7.86,364.05,10.79Z"/><path class="cls-8" d="M366.31,23.8c.05,2.93-4.56,2.93-4.52,0S366.36,20.87,366.31,23.8Z"/><path class="cls-8" d="M370.85.39c0,2.93-4.57,2.93-4.52,0S370.89-2.54,370.85.39Z"/><path class="cls-8" d="M389.66-1.41c0,2.93-4.57,2.93-4.53,0S389.7-4.34,389.66-1.41Z"/><path class="cls-8" d="M399.93,1.92c0,2.94-4.57,2.94-4.53,0S400-1,399.93,1.92Z"/><path class="cls-8" d="M409.8,13.93c0,2.93-4.57,2.93-4.52,0S409.84,11,409.8,13.93Z"/><path class="cls-8" d="M426.6,25.67c0,2.93-4.56,2.93-4.52,0S426.65,22.73,426.6,25.67Z"/><path class="cls-8" d="M421.8,55.41c.05,2.93-4.56,2.93-4.52,0S421.85,52.47,421.8,55.41Z"/><path class="cls-8" d="M408.2,65c0,2.93-4.57,2.93-4.53,0S408.24,62.08,408.2,65Z"/><path class="cls-8" d="M425.54,69.28c0,2.93-4.57,2.93-4.53,0S425.58,66.34,425.54,69.28Z"/><path class="cls-8" d="M436.61,45.41c.05,2.93-4.56,2.93-4.52,0S436.66,42.47,436.61,45.41Z"/><path class="cls-8" d="M446,.86c0,2.93-4.56,2.93-4.52,0S446-2.08,446,.86Z"/><path class="cls-8" d="M456.36,2.19c0,2.94-4.57,2.94-4.53,0S456.4-.74,456.36,2.19Z"/><path class="cls-8" d="M464.63.86c0,2.93-4.57,2.93-4.53,0S464.67-2.08,464.63.86Z"/><path class="cls-8" d="M477.82,4.59c.05,2.94-4.56,2.94-4.52,0S477.87,1.66,477.82,4.59Z"/><path class="cls-8" d="M468.29,17.86c0,2.94-4.57,2.94-4.53,0S468.33,14.93,468.29,17.86Z"/><path class="cls-8" d="M486.89,3c.05,2.94-4.56,2.94-4.52,0S486.94.06,486.89,3Z"/><path class="cls-8" d="M486.36,15.14c0,2.93-4.57,2.93-4.52,0S486.4,12.2,486.36,15.14Z"/><path class="cls-8" d="M495.16,8.33c0,2.93-4.56,2.93-4.52,0S495.21,5.39,495.16,8.33Z"/><path class="cls-8" d="M487.16,27.27c0,2.93-4.56,2.93-4.52,0S487.2,24.33,487.16,27.27Z"/><path class="cls-8" d="M453.41,57.68c0,2.93-4.57,2.93-4.52,0S453.45,54.75,453.41,57.68Z"/><path class="cls-8" d="M450.61,72.35c.05,2.94-4.56,2.94-4.52,0S450.66,69.42,450.61,72.35Z"/><path class="cls-8" d="M440.74,74.22c.05,2.93-4.56,2.93-4.52,0S440.79,71.29,440.74,74.22Z"/><path class="cls-8" d="M436.47,86.22c0,2.94-4.56,2.94-4.52,0S436.52,83.29,436.47,86.22Z"/><path class="cls-8" d="M430.87,96.36c.05,2.94-4.56,2.94-4.52,0S430.92,93.43,430.87,96.36Z"/><path class="cls-8" d="M415.4,102c0,2.94-4.57,2.94-4.52,0S415.44,99,415.4,102Z"/><path class="cls-8" d="M409.53,95C409.57,98,405,98,405,95S409.57,92.09,409.53,95Z"/><path class="cls-8" d="M409.26,117c.05,2.93-4.56,2.93-4.52,0S409.31,114.1,409.26,117Z"/><path class="cls-8" d="M422.6,124.23c0,2.94-4.56,2.94-4.52,0S422.65,121.3,422.6,124.23Z"/><path class="cls-8" d="M421.27,110.5c0,2.93-4.57,2.93-4.52,0S421.31,107.57,421.27,110.5Z"/><path class="cls-8" d="M362.19,142c0,2.93-4.57,2.93-4.53,0S362.23,139.05,362.19,142Z"/><path class="cls-8" d="M343.11,160.39c0,2.93-4.57,2.93-4.53,0S343.15,157.45,343.11,160.39Z"/><path class="cls-8" d="M309.23,165.72c0,2.94-4.57,2.94-4.53,0S309.27,162.79,309.23,165.72Z"/><path class="cls-8" d="M311.23,172.46c0,2.93-4.57,2.93-4.53,0S311.27,169.52,311.23,172.46Z"/><path class="cls-8" d="M309,180.46c0,2.93-4.57,2.93-4.53,0S309.07,177.53,309,180.46Z"/><path class="cls-8" d="M315.43,186.66c0,2.94-4.57,2.94-4.52,0S315.47,183.73,315.43,186.66Z"/><path class="cls-8" d="M332.63,181.26c.05,2.93-4.56,2.93-4.52,0S332.68,178.33,332.63,181.26Z"/><path class="cls-8" d="M353,171.06c0,2.93-4.56,2.93-4.52,0S353.09,168.12,353,171.06Z"/><path class="cls-8" d="M417.53,141.45c.05,2.93-4.56,2.93-4.52,0S417.58,138.51,417.53,141.45Z"/><path class="cls-8" d="M426.87,134.24c0,2.94-4.56,2.94-4.52,0S426.91,131.31,426.87,134.24Z"/><path class="cls-8" d="M427.4,142.51c.05,2.94-4.56,2.94-4.52,0S427.45,139.58,427.4,142.51Z"/><path class="cls-8" d="M438.61,133.71c0,2.93-4.57,2.93-4.52,0S438.65,130.78,438.61,133.71Z"/><path class="cls-8" d="M433.81,119.57c0,2.93-4.57,2.93-4.53,0S433.85,116.64,433.81,119.57Z"/><path class="cls-8" d="M430.75,106.5c0,2.93-4.57,2.93-4.53,0S430.79,103.56,430.75,106.5Z"/><path class="cls-8" d="M439,105.16c0,2.94-4.57,2.94-4.53,0S439.06,102.23,439,105.16Z"/><path class="cls-8" d="M446,96c0,2.93-4.57,2.93-4.52,0S446.06,93.09,446,96Z"/><path class="cls-8" d="M449.55,104.36c0,2.94-4.57,2.94-4.53,0S449.59,101.43,449.55,104.36Z"/><path class="cls-8" d="M444.74,114.5c.05,2.94-4.56,2.94-4.52,0S444.79,111.57,444.74,114.5Z"/><path class="cls-8" d="M445.68,139.31c.05,2.94-4.56,2.94-4.52,0S445.73,136.38,445.68,139.31Z"/><path class="cls-8" d="M440.74,150.64c.05,2.94-4.56,2.94-4.52,0S440.79,147.71,440.74,150.64Z"/><path class="cls-8" d="M431.14,156.78c0,2.93-4.57,2.93-4.52,0S431.18,153.84,431.14,156.78Z"/><path class="cls-8" d="M419.67,157.45c0,2.94-4.57,2.94-4.52,0S419.71,154.52,419.67,157.45Z"/><path class="cls-8" d="M452.75,130.24c0,2.94-4.57,2.94-4.52,0S452.79,127.31,452.75,130.24Z"/><path class="cls-8" d="M461,115.3c0,2.94-4.57,2.94-4.52,0S461.06,112.37,461,115.3Z"/><path class="cls-8" d="M458.35,106.77c0,2.93-4.57,2.93-4.52,0S458.39,103.83,458.35,106.77Z"/><path class="cls-8" d="M465.15,83.56c0,2.93-4.57,2.93-4.53,0S465.19,80.62,465.15,83.56Z"/><path class="cls-8" d="M475.16,89.69c0,2.94-4.57,2.94-4.53,0S475.2,86.76,475.16,89.69Z"/><path class="cls-8" d="M495.3,76.22c0,2.93-4.57,2.93-4.52,0S495.34,73.29,495.3,76.22Z"/><path class="cls-8" d="M491.7,51.28c0,2.93-4.57,2.93-4.53,0S491.74,48.34,491.7,51.28Z"/><path class="cls-8" d="M503.64,31c0,2.94-4.57,2.94-4.52,0S503.68,28.07,503.64,31Z"/><path class="cls-8" d="M507.3,18.8c.05,2.93-4.56,2.93-4.52,0S507.35,15.86,507.3,18.8Z"/><path class="cls-8" d="M513.3,26.4c.05,2.93-4.56,2.93-4.52,0S513.35,23.47,513.3,26.4Z"/><path class="cls-8" d="M519.71,30.4c0,2.94-4.57,2.94-4.53,0S519.75,27.47,519.71,30.4Z"/><path class="cls-8" d="M515.51,40.61c0,2.93-4.57,2.93-4.53,0S515.55,37.67,515.51,40.61Z"/><path class="cls-8" d="M517.11,54c0,2.94-4.57,2.94-4.53,0S517.15,51.08,517.11,54Z"/><path class="cls-8" d="M528.71,42.81c0,2.93-4.57,2.93-4.52,0S528.75,39.87,528.71,42.81Z"/><path class="cls-8" d="M534.11,50.81c0,2.93-4.56,2.93-4.52,0S534.16,47.88,534.11,50.81Z"/><path class="cls-8" d="M537.31,59.81c.05,2.94-4.56,2.94-4.52,0S537.36,56.88,537.31,59.81Z"/><path class="cls-8" d="M530.31,68.62c0,2.93-4.56,2.93-4.52,0S530.35,65.68,530.31,68.62Z"/><path class="cls-8" d="M543.12,69.22c0,2.93-4.57,2.93-4.53,0S543.16,66.28,543.12,69.22Z"/><path class="cls-8" d="M521.11,79.62c0,2.94-4.57,2.94-4.52,0S521.15,76.69,521.11,79.62Z"/><path class="cls-8" d="M519.11,92.09c0,2.93-4.57,2.93-4.53,0S519.15,89.15,519.11,92.09Z"/><path class="cls-8" d="M540.92,83.82c0,2.94-4.57,2.94-4.53,0S541,80.89,540.92,83.82Z"/><path class="cls-8" d="M548.12,92.49c0,2.93-4.57,2.93-4.52,0S548.16,89.55,548.12,92.49Z"/><path class="cls-8" d="M545.72,100c0,2.93-4.57,2.93-4.53,0S545.76,97.1,545.72,100Z"/><path class="cls-8" d="M536.51,102.23c0,2.93-4.56,2.93-4.52,0S536.56,99.3,536.51,102.23Z"/><path class="cls-8" d="M529.51,107.63c0,2.94-4.57,2.94-4.52,0S529.55,104.7,529.51,107.63Z"/><path class="cls-8" d="M494.7,114.84c0,2.93-4.57,2.93-4.53,0S494.74,111.9,494.7,114.84Z"/><path class="cls-8" d="M547.12,118.64c0,2.93-4.57,2.93-4.52,0S547.16,115.7,547.12,118.64Z"/><path class="cls-8" d="M552.72,127c0,2.93-4.57,2.93-4.52,0S552.76,124.11,552.72,127Z"/><path class="cls-8" d="M552.12,138.64c0,2.94-4.57,2.94-4.52,0S552.16,135.71,552.12,138.64Z"/><path class="cls-8" d="M535.31,138.24c.05,2.94-4.56,2.94-4.52,0S535.36,135.31,535.31,138.24Z"/><path class="cls-8" d="M543.72,156.25c0,2.94-4.57,2.94-4.53,0S543.76,153.32,543.72,156.25Z"/><path class="cls-8" d="M503.7,141.05c0,2.93-4.57,2.93-4.52,0S503.74,138.11,503.7,141.05Z"/><path class="cls-8" d="M517.71,150.85c0,2.93-4.57,2.93-4.53,0S517.75,147.92,517.71,150.85Z"/><path class="cls-8" d="M519.71,166.06c0,2.93-4.57,2.93-4.53,0S519.75,163.12,519.71,166.06Z"/><path class="cls-8" d="M536.91,168.86c.05,2.93-4.56,2.93-4.52,0S537,165.92,536.91,168.86Z"/><path class="cls-8" d="M530.11,182.26c0,2.94-4.56,2.94-4.52,0S530.15,179.33,530.11,182.26Z"/><path class="cls-8" d="M519.51,194.07c0,2.93-4.57,2.93-4.53,0S519.55,191.13,519.51,194.07Z"/><path class="cls-8" d="M493.5,182.06c0,2.94-4.57,2.94-4.53,0S493.54,179.13,493.5,182.06Z"/><path class="cls-8" d="M474.69,162.45c0,2.94-4.57,2.94-4.52,0S474.73,159.52,474.69,162.45Z"/><path class="cls-8" d="M474.09,175.86c0,2.93-4.57,2.93-4.52,0S474.13,172.93,474.09,175.86Z"/><path class="cls-8" d="M445.28,161.05c0,2.94-4.57,2.94-4.52,0S445.32,158.12,445.28,161.05Z"/><path class="cls-8" d="M460.28,175.86c.05,2.93-4.56,2.93-4.52,0S460.33,172.93,460.28,175.86Z"/><path class="cls-8" d="M456.08,186.26c.05,2.94-4.56,2.94-4.52,0S456.13,183.33,456.08,186.26Z"/><path class="cls-8" d="M432.27,173.46c.05,2.93-4.56,2.93-4.52,0S432.32,170.52,432.27,173.46Z"/><path class="cls-8" d="M434.07,182.46c.05,2.94-4.56,2.94-4.52,0S434.12,179.53,434.07,182.46Z"/><path class="cls-8" d="M440.08,203.07c0,2.93-4.57,2.93-4.53,0S440.12,200.14,440.08,203.07Z"/><path class="cls-8" d="M436.47,216.27c0,2.94-4.56,2.94-4.52,0S436.52,213.34,436.47,216.27Z"/><path class="cls-8" d="M446.28,234.68c0,2.94-4.57,2.94-4.52,0S446.32,231.75,446.28,234.68Z"/><path class="cls-8" d="M435.27,245.09c.05,2.93-4.56,2.93-4.52,0S435.32,242.15,435.27,245.09Z"/><path class="cls-8" d="M427.47,229.08c0,2.93-4.56,2.93-4.52,0S427.51,226.15,427.47,229.08Z"/><path class="cls-8" d="M419.07,183.46c0,2.94-4.57,2.94-4.52,0S419.11,180.53,419.07,183.46Z"/><path class="cls-8" d="M387.86,206.87c0,2.93-4.57,2.93-4.53,0S387.9,203.94,387.86,206.87Z"/><path class="cls-8" d="M382.05,232.68c.05,2.93-4.56,2.93-4.52,0S382.1,229.75,382.05,232.68Z"/><path class="cls-8" d="M391.46,236.68c0,2.94-4.57,2.94-4.53,0S391.5,233.75,391.46,236.68Z"/><path class="cls-8" d="M401.4,233.48c0,2.94-4.57,2.94-4.52,0S401.44,230.55,401.4,233.48Z"/><path class="cls-8" d="M413.07,209.47c0,2.94-4.57,2.94-4.53,0S413.11,206.54,413.07,209.47Z"/><path class="cls-8" d="M372.32,194.67c0,2.93-4.57,2.93-4.53,0S372.36,191.73,372.32,194.67Z"/><path class="cls-8" d="M367.51,217.88c.05,2.93-4.56,2.93-4.52,0S367.56,214.94,367.51,217.88Z"/><path class="cls-8" d="M371.38,227.28c.05,2.93-4.56,2.93-4.52,0S371.43,224.34,371.38,227.28Z"/><path class="cls-8" d="M356.44,225.88c.05,2.93-4.56,2.93-4.52,0S356.49,222.94,356.44,225.88Z"/><path class="cls-8" d="M352.24,203.87c.05,2.93-4.56,2.93-4.52,0S352.29,200.94,352.24,203.87Z"/><path class="cls-8" d="M349.17,215.21c.05,2.93-4.56,2.93-4.52,0S349.22,212.27,349.17,215.21Z"/><path class="cls-8" d="M340.24,207.6c0,2.94-4.57,2.94-4.53,0S340.28,204.67,340.24,207.6Z"/><path class="cls-8" d="M334,204.27c0,2.93-4.57,2.93-4.52,0S334,201.34,334,204.27Z"/><path class="cls-8" d="M329.7,197.87c0,2.93-4.57,2.93-4.52,0S329.74,194.93,329.7,197.87Z"/><path class="cls-8" d="M410.66,240.48c0,2.94-4.56,2.94-4.52,0S410.71,237.55,410.66,240.48Z"/><path class="cls-8" d="M420.07,234.48c0,2.94-4.57,2.94-4.52,0S420.11,231.55,420.07,234.48Z"/><path class="cls-8" d="M462.19,235.69c0,2.94-4.57,2.94-4.53,0S462.23,232.76,462.19,235.69Z"/><path class="cls-8" d="M471.69,239.68c0,2.94-4.57,2.94-4.52,0S471.73,236.75,471.69,239.68Z"/><path class="cls-8" d="M482.29,224.28c0,2.93-4.56,2.93-4.52,0S482.34,221.34,482.29,224.28Z"/><path class="cls-8" d="M497.3,224.48c0,2.93-4.57,2.93-4.52,0S497.34,221.54,497.3,224.48Z"/><path class="cls-8" d="M502.3,208.07c0,2.94-4.57,2.94-4.52,0S502.34,205.14,502.3,208.07Z"/><path class="cls-8" d="M470.89,133.64c0,2.94-4.57,2.94-4.52,0S470.93,130.71,470.89,133.64Z"/><path class="cls-8" d="M473.56,56.88c0,2.93-4.57,2.93-4.53,0S473.6,54,473.56,56.88Z"/><path class="cls-8" d="M393.26,33.94c0,2.93-4.57,2.93-4.52,0S393.3,31,393.26,33.94Z"/><path class="cls-8" d="M394.26,20.6c0,2.93-4.57,2.93-4.52,0S394.3,17.66,394.26,20.6Z"/><path class="cls-8" d="M376.18,51.28c.05,2.93-4.56,2.93-4.52,0S376.23,48.34,376.18,51.28Z"/><path class="cls-8" d="M364.71,58.48c.05,2.93-4.56,2.93-4.52,0S364.76,55.55,364.71,58.48Z"/><path class="cls-8" d="M392.66,54.68c0,2.93-4.57,2.93-4.52,0S392.7,51.74,392.66,54.68Z"/><path class="cls-9" d="M617.42,803.52c1.51,0,3-.16,4.48-.14-.08-.47-1.2-58.73-2.86-66.26C617.23,736.47,617.54,801.69,617.42,803.52Z"/><path class="cls-7" d="M619.57,728c2.8-25.15,3.85-149.6.46-174.35C617.9,565.5,617.11,717.13,619.57,728Z"/><path class="cls-7" d="M594.25,595.06c3.74-9,12.61-37.75,21.62-43.4C605.55,554.82,592.6,589.4,594.25,595.06Z"/><path class="cls-7" d="M583.69,571.21c6.07-6.55,11.53-16.4,31-21.8C605.23,546,582.83,564.42,583.69,571.21Z"/><path class="cls-7" d="M566.06,570.48c.9.66,1.74-1,4.54-3.39,8.21-10.46,21-16.44,32.53-18.64C592.71,543.77,565.68,562.69,566.06,570.48Z"/><path class="cls-7" d="M549.79,557.46c14.79-7.39,48.52-15.42,65-9.88C602.43,536.38,554.09,546.71,549.79,557.46Z"/><path class="cls-7" d="M565.43,539c.42,1,2,.49,5.57-.17,13.46-2.51,26.79-1.25,36.93,3C601.8,532.93,569.55,532.84,565.43,539Z"/><path class="cls-7" d="M589.05,496.31c12.33,12.65,21.54,21.56,28.25,42.44C619.71,527,593.51,493.22,589.05,496.31Z"/><path class="cls-7" d="M647.54,495c-6.35,4.84-22.45,29.44-22.12,37.2C625.56,517.19,637.76,495.52,647.54,495Z"/><path class="cls-7" d="M586.59,512.94a123.32,123.32,0,0,1,15.13,11.32c5.56,3.93,14.8,17.86,15.13,20.69C615.1,530.07,593.07,511.41,586.59,512.94Z"/><path class="cls-7" d="M650.78,506.24c-6.45,3.81-22.32,23.6-24.91,30.19C628.62,525.82,644.63,505.42,650.78,506.24Z"/><path class="cls-7" d="M665.4,509.32c.13,1.27-1.87,1.63-5.55,4.07a142.45,142.45,0,0,0-14.21,9.69c-7.68,4.79-19.25,17.3-20.12,21.24C629.36,526.91,658.15,509,665.4,509.32Z"/><path class="cls-7" d="M667.76,529c-5.11,1.25-9.34,1.22-17.15,3.7-6.51,1.06-15.26,6.06-19.5,8.63C635,532.88,662.66,525,667.76,529Z"/><path class="cls-7" d="M664.75,546.51c-2.75.06-8.37-1.06-17-1.22a122.39,122.39,0,0,0-21.72,1.32C632.2,540.13,661.83,540.72,664.75,546.51Z"/><path class="cls-7" d="M649.94,579.11c-2.6-5-4.22-7.06-9.13-14.66s-12-13.27-14.74-15.76C634.94,549.52,652.71,573.24,649.94,579.11Z"/><path class="cls-7" d="M640.56,590.08c-2.4-7.12-8.34-23.12-12.83-29.86-3.13-5-4.15-6.05-4.5-7.31C631.55,554.66,644.65,585,640.56,590.08Z"/><path class="cls-7" d="M584,524.11c15.16,8.13,20.1,7.78,32.75,23C615.25,537.85,590.16,521.6,584,524.11Z"/><path class="cls-7" d="M620.25,548.7c1.55-1.56,1.55-23.16,1.92-34.15-.15-12.33.67-27.34-1.44-26.8S619,543,620.25,548.7Z"/><path class="cls-7" d="M626.17,509.07c.25.33,1.69-2.63,6-9.27,2.06-3.19,6.83-7.31,7.78-10.62C633.78,490.24,625.88,503.73,626.17,509.07Z"/><path class="cls-7" d="M615.49,522.94c-.33.25-.89-3-3.16-10.56A124.55,124.55,0,0,0,607.8,500C613.41,502.74,617.25,517.89,615.49,522.94Z"/><path class="cls-7" d="M637.12,549.3c3.85,2.09,9.1,4.79,13.16,7.39s7.6,6.58,10.75,9.42C660.28,558.71,643.7,548.66,637.12,549.3Z"/></g><g id="palm_trees" data-name="palm trees"><path class="cls-4" d="M522.36,540.21c-19.48-5.45-43.37-4.89-60.12,7.43,10.37-12.15,24.33-14.2,38.28-16.56-6.33-1.32-13.86-.41-20,1.57,6.8-5.06,1-4.12-2.77-1,.77-2,1.82-5,.87-7,6.79-2.94,11.89-8.41,18.11-12.16,1.76-1.2,5.07-1.49,5.8-3.61-3.13-1.4-7.59,2.25-11.31,1.56,7.36-5.94-9.67.21-11,2.87-7.7,3.61-12,13.2-18.64,18.82,2.05-11.39,16.4-29.61,15.57-30.29s-8.95,7.93-11.9,11.5c.95-3.89,6.77-9.55,6.17-10.31s-7.12,5.35-9.72,8.93c2-5.84,8.37-7.79,10.81-13,2.14-9.89,3.33-14.65-5.26-4.19-1.34,1.61-.44,4.32-1.8,5.91,1.35-7.65-3.48,1.64-5.74,3-.22-2.84.26-7.4-3-8.57-.42-6-5.32,3.08-4.86,7-6.12-9.19,4.1,13.84,2.38,20.33-3.41-9.51-9.21-18.3-14.07-27.5-.74-1.46-2.2-.52-3.25-2.61-.32-.64-1.28-1.54-1.79-1-2.41,4.8,7.12,17.14,8.29,23.44-8.3-7.16,3.73,11.18,4.88,13.52-2.86-.65,2.7,6.64,3,8.06-2.63.18-2.33-4.37-5.1-4.28-.57-.34-.57-1.14-.85-1.73-.57-1.27-2.3-1.54-3.15-2.64-.57-1-1.86-2.45-1.56-.65-2-2.31-3.67-4.65-6.88-5.43-4.68-1.82-15-10.55-12.88-5.25-2.86-2.52-4.15-.71-1.37,1.43,7.21,5.46,16.67,8.41,22.1,16-7.79-5.45-16.42-12.16-26.1-11.69-.71-.45-2.44-.81-2.27.49,11.86,6.3,29.5,8.92,35.06,23.09-7.38-6.62-35.59-8.23-37.73-6.35-3.37.16-9.23-.13-9.39,1.12,3.82,2.23,23.29.57,28.9,1.53,4.33,0-.88.72,8.67,1.44a16.3,16.3,0,0,1,7.06,2.25c-11.14-1.84-28.51-2.6-42,1.61-10.52,1.76-9.31,4.17-9.31,4.17-30.63,16.32,39.63-17.93,56.16-1-10.17-6-23.88,2-24.86,2-5.78.08-4.74,1.92-5.21,2-2.65.48-1.48,1.6-2.33,1.77-6.58,1.28-5,2.79-5.78,3.29-6.66,4.25-6.26,5.62-7.14,8.91-.69,2.54-6.59,5.94-5.62,6.82,7.69-3.91,29.51-30.77,49-25.21-2.25-1.62-32.61,10.22-33,14.93-.08.89-5.54,3.38-8.11,5.06s-2.65,4.5-3.69,6.91-4.33,5.69-3.69,5.94c.53.74,23.4-25.9,29.94-25.45-2.52.5-20.73,15.94-18.7,19.59,1,.8,5.29-6.35,9.31-10.68s10.59-7.79,10.59-7.79c.54,0-19.73,18.38-15,20.23-3.57,5.75-.58,5.66,2.25-1.28,3-6.08,6.81-7.19,10.09-12.92-1,7.44,11.34-20.33,22.81-12.67-8.65,1-21.75,39-21.26,40.68,1.28.56,1.85-3.21,3.37-5.62,7.7-9.84,5.59-27.1,17.91-34.32,10,52.78-1.92,228.78,1.12,277.14-.64,12.19,7.06,5.14,7.06,5.14-2.57-58.35,1.44-223.26.35-280.46,5.12,6.55,5.09,15.51,9.31,22.6,1.13,5.46,1.13,10.87,4.67,15.24,5.4,4.78-3.05-23.19-4.7-24.86a146.46,146.46,0,0,0-8.54-14.13c.43-3.18,4.45-.81,6.43.7,4.24,2.94,4.85,8.55,7.89,12.34,3.29,2,3.46,6.57,6.64,8.48,4.39,3.18,2.85-.35,1.39-3.08-3-8.86-8.93-18-18.64-20.65,12.54-.59,24.46,2.86,36.35,6.36,12.29,4-4.63-3.8-8-3.85,2.63-3-29.15-4.55-32.05-3,15.05-9.11,34.84-2.93,48.87,5.43,1.22,1,1.55-.24.43-1-3.39-3.81-8.52-4.22-12.31-7.06-2-.85-3.28-3.51-5.31-3.72-3.2-.2-3.19-2-5-1.81-3.61.33-2.65-1.09-4.29-1.08-4.51,1.42-9.33,1.14-13.66,3.16,10.09-6.52,23.61-2.35,34.82-5.4C506.62,538.37,525.27,543.22,522.36,540.21Z"/><path class="cls-1" d="M462.15,544.22c2.41-3.85,6.31-6.23,10.35-8.08Q467.52,540.43,462.15,544.22Z"/><path class="cls-1" d="M465.57,536a96.33,96.33,0,0,1,11.88-10.76A43,43,0,0,1,465.57,536Z"/><path class="cls-1" d="M477,520.63c2.4-1.88,4.92-3.62,7.39-5.4-5.24,5.93-11.82,10.33-17.76,15.64A65.22,65.22,0,0,1,477,520.63Z"/><path class="cls-4" d="M831,540.21c-19.48-5.45-43.37-4.89-60.12,7.43,10.38-12.15,24.34-14.2,38.28-16.56-6.33-1.32-13.86-.41-20,1.57,6.81-5.06,1-4.12-2.77-1,.78-2,1.83-5,.88-7,6.78-2.94,11.88-8.41,18.1-12.16,1.77-1.2,5.07-1.49,5.81-3.61-3.14-1.4-7.6,2.25-11.32,1.56,7.37-5.94-9.66.21-11,2.87-7.71,3.61-12,13.2-18.65,18.82,2.06-11.39,16.4-29.61,15.57-30.29s-9,7.93-11.9,11.5c1-3.89,6.78-9.55,6.17-10.31s-7.12,5.35-9.71,8.93c2-5.84,8.37-7.79,10.81-13,2.14-9.89,3.33-14.65-5.27-4.19-1.34,1.61-.44,4.32-1.8,5.91,1.35-7.65-3.47,1.64-5.73,3-.22-2.84.26-7.4-3-8.57-.43-6-5.33,3.08-4.87,7-6.11-9.19,4.11,13.84,2.39,20.33-3.42-9.51-9.22-18.3-14.08-27.5-.74-1.46-2.2-.52-3.24-2.61-.32-.64-1.29-1.54-1.79-1-2.42,4.8,7.12,17.14,8.29,23.44-8.31-7.16,3.72,11.18,4.88,13.52-2.87-.65,2.7,6.64,3,8.06-2.63.18-2.33-4.37-5.11-4.28-.56-.34-.57-1.14-.84-1.73-.58-1.27-2.31-1.54-3.15-2.64-.57-1-1.87-2.45-1.57-.65-2-2.31-3.67-4.65-6.87-5.43-4.69-1.82-15-10.55-12.88-5.25-2.86-2.52-4.16-.71-1.37,1.43,7.2,5.46,16.66,8.41,22.1,16-7.8-5.45-16.43-12.16-26.11-11.69-.71-.45-2.43-.81-2.26.49,11.86,6.3,29.5,8.92,35,23.09-7.38-6.62-35.59-8.23-37.72-6.35-3.37.16-9.23-.13-9.39,1.12,3.81,2.23,23.28.57,28.89,1.53,4.34,0-.88.72,8.67,1.44a16.37,16.37,0,0,1,7.07,2.25c-11.15-1.84-28.52-2.6-42,1.61-10.51,1.76-9.31,4.17-9.31,4.17-30.62,16.32,39.63-17.93,56.16-1-10.17-6-23.88,2-24.85,2-5.78.08-4.75,1.92-5.22,2-2.65.48-1.48,1.6-2.33,1.77-6.58,1.28-5,2.79-5.78,3.29-6.66,4.25-6.26,5.62-7.14,8.91-.68,2.54-6.58,5.94-5.62,6.82,7.7-3.91,29.52-30.77,49-25.21-2.26-1.62-32.61,10.22-33,14.93-.08.89-5.53,3.38-8.1,5.06s-2.65,4.5-3.7,6.91-4.33,5.69-3.69,5.94c.54.74,23.4-25.9,29.94-25.45-2.51.5-20.73,15.94-18.7,19.59,1,.8,5.3-6.35,9.31-10.68s10.6-7.79,10.6-7.79c.54,0-19.74,18.38-15,20.23-3.58,5.75-.59,5.66,2.24-1.28,3-6.08,6.81-7.19,10.09-12.92-1,7.44,11.34-20.33,22.81-12.67-8.65,1-21.74,39-21.26,40.68,1.29.56,1.85-3.21,3.37-5.62,7.7-9.84,5.6-27.1,17.91-34.32,10,52.78-1.91,228.78,1.12,277.14-.64,12.19,7.06,5.14,7.06,5.14-2.56-58.35,1.44-223.26.36-280.46,5.11,6.55,5.09,15.51,9.3,22.6,1.13,5.46,1.14,10.87,4.67,15.24,5.41,4.78-3-23.19-4.7-24.86a142.53,142.53,0,0,0-8.54-14.13c.43-3.18,4.45-.81,6.43.7,4.24,2.94,4.86,8.55,7.9,12.34,3.28,2,3.45,6.57,6.64,8.48,4.38,3.18,2.85-.35,1.38-3.08-3-8.86-8.93-18-18.63-20.65,12.53-.59,24.46,2.86,36.35,6.36,12.28,4-4.64-3.8-8-3.85,2.63-3-29.15-4.55-32.05-3,15.05-9.11,34.85-2.93,48.87,5.43,1.22,1,1.55-.24.43-1-3.38-3.81-8.51-4.22-12.31-7.06-2-.85-3.28-3.51-5.31-3.72-3.19-.2-3.19-2-5-1.81-3.61.33-2.66-1.09-4.3-1.08-4.51,1.42-9.33,1.14-13.65,3.16,10.08-6.52,23.61-2.35,34.82-5.4C815.28,538.37,833.93,543.22,831,540.21Z"/><path class="cls-1" d="M770.81,544.22c2.4-3.85,6.3-6.23,10.34-8.08Q776.19,540.43,770.81,544.22Z"/><path class="cls-1" d="M774.22,536a96.42,96.42,0,0,1,11.89-10.76A43,43,0,0,1,774.22,536Z"/><path class="cls-1" d="M785.63,520.63c2.4-1.88,4.92-3.62,7.4-5.4-5.25,5.93-11.83,10.33-17.76,15.64A65.58,65.58,0,0,1,785.63,520.63Z"/><path class="cls-4" d="M353.36,540.21c-19.48-5.45-43.37-4.89-60.12,7.43,10.37-12.15,24.33-14.2,38.28-16.56-6.33-1.32-13.86-.41-20,1.57,6.8-5.06,1-4.12-2.77-1,.77-2,1.82-5,.87-7,6.79-2.94,11.89-8.41,18.11-12.16,1.76-1.2,5.07-1.49,5.8-3.61-3.13-1.4-7.59,2.25-11.31,1.56,7.36-5.94-9.67.21-11,2.87-7.7,3.61-12,13.2-18.64,18.82,2.05-11.39,16.4-29.61,15.57-30.29s-8.95,7.93-11.9,11.5c.95-3.89,6.77-9.55,6.17-10.31s-7.12,5.35-9.72,8.93c2-5.84,8.37-7.79,10.81-13,2.14-9.89,3.33-14.65-5.26-4.19-1.34,1.61-.44,4.32-1.8,5.91,1.35-7.65-3.48,1.64-5.74,3-.22-2.84.26-7.4-3-8.57-.42-6-5.32,3.08-4.86,7-6.12-9.19,4.1,13.84,2.38,20.33-3.41-9.51-9.21-18.3-14.07-27.5-.74-1.46-2.21-.52-3.25-2.61-.32-.64-1.28-1.54-1.79-1-2.41,4.8,7.12,17.14,8.29,23.44-8.3-7.16,3.73,11.18,4.88,13.52-2.86-.65,2.7,6.64,3,8.06-2.63.18-2.33-4.37-5.1-4.28-.57-.34-.57-1.14-.85-1.73-.57-1.27-2.3-1.54-3.15-2.64-.57-1-1.86-2.45-1.56-.65-2-2.31-3.67-4.65-6.88-5.43-4.68-1.82-15-10.55-12.88-5.25-2.86-2.52-4.15-.71-1.37,1.43,7.21,5.46,16.67,8.41,22.1,16-7.79-5.45-16.42-12.16-26.1-11.69-.71-.45-2.44-.81-2.27.49,11.86,6.3,29.5,8.92,35.06,23.09-7.38-6.62-35.6-8.23-37.73-6.35-3.37.16-9.23-.13-9.39,1.12,3.82,2.23,23.29.57,28.9,1.53,4.33,0-.88.72,8.67,1.44a16.3,16.3,0,0,1,7.06,2.25c-11.14-1.84-28.51-2.6-42,1.61-10.52,1.76-9.31,4.17-9.31,4.17-30.63,16.32,39.63-17.93,56.16-1-10.17-6-23.88,2-24.86,2-5.78.08-4.74,1.92-5.21,2-2.65.48-1.48,1.6-2.33,1.77-6.58,1.28-5,2.79-5.78,3.29-6.66,4.25-6.26,5.62-7.15,8.91-.68,2.54-6.58,5.94-5.61,6.82,7.69-3.91,29.51-30.77,49-25.21-2.26-1.62-32.61,10.22-33,14.93-.08.89-5.54,3.38-8.11,5.06s-2.65,4.5-3.69,6.91-4.33,5.69-3.69,5.94c.53.74,23.4-25.9,29.94-25.45-2.52.5-20.74,15.94-18.7,19.59,1,.8,5.29-6.35,9.31-10.68s10.59-7.79,10.59-7.79c.54,0-19.73,18.38-15,20.23-3.57,5.75-.58,5.66,2.25-1.28,3-6.08,6.81-7.19,10.09-12.92-1,7.44,11.34-20.33,22.81-12.67-8.65,1-21.75,39-21.26,40.68,1.28.56,1.84-3.21,3.37-5.62,7.7-9.84,5.59-27.1,17.91-34.32,10,52.78-1.92,228.78,1.12,277.14-.64,12.19,7.06,5.14,7.06,5.14-2.57-58.35,1.44-223.26.35-280.46,5.12,6.55,5.09,15.51,9.31,22.6,1.13,5.46,1.13,10.87,4.67,15.24,5.4,4.78-3.05-23.19-4.7-24.86a146.46,146.46,0,0,0-8.54-14.13c.43-3.18,4.45-.81,6.43.7,4.24,2.94,4.85,8.55,7.89,12.34,3.29,2,3.46,6.57,6.64,8.48,4.39,3.18,2.85-.35,1.39-3.08-3-8.86-8.93-18-18.64-20.65,12.54-.59,24.46,2.86,36.35,6.36,12.29,4-4.63-3.8-8-3.85,2.63-3-29.15-4.55-32.05-3,15.05-9.11,34.84-2.93,48.87,5.43,1.22,1,1.55-.24.43-1-3.39-3.81-8.52-4.22-12.31-7.06-2-.85-3.28-3.51-5.31-3.72-3.2-.2-3.19-2-5-1.81-3.61.33-2.65-1.09-4.29-1.08-4.51,1.42-9.33,1.14-13.66,3.16,10.09-6.52,23.61-2.35,34.82-5.4C337.62,538.37,356.27,543.22,353.36,540.21Z"/><path class="cls-1" d="M293.15,544.22c2.41-3.85,6.31-6.23,10.35-8.08Q298.52,540.43,293.15,544.22Z"/><path class="cls-1" d="M296.57,536a96.33,96.33,0,0,1,11.88-10.76A43,43,0,0,1,296.57,536Z"/><path class="cls-1" d="M308,520.63c2.41-1.88,4.92-3.62,7.4-5.4-5.24,5.93-11.82,10.33-17.76,15.64A65.58,65.58,0,0,1,308,520.63Z"/><path class="cls-4" d="M173.89,540.21c-19.48-5.45-43.37-4.89-60.12,7.43,10.38-12.15,24.33-14.2,38.28-16.56-6.33-1.32-13.86-.41-20.05,1.57,6.81-5.06,1-4.12-2.77-1,.77-2,1.83-5,.88-7,6.78-2.94,11.88-8.41,18.1-12.16,1.77-1.2,5.07-1.49,5.81-3.61-3.14-1.4-7.6,2.25-11.32,1.56,7.37-5.94-9.66.21-11,2.87-7.71,3.61-12,13.2-18.65,18.82,2.06-11.39,16.4-29.61,15.57-30.29s-8.95,7.93-11.9,11.5c1-3.89,6.78-9.55,6.17-10.31s-7.12,5.35-9.71,8.93c2-5.84,8.37-7.79,10.8-13,2.15-9.89,3.34-14.65-5.26-4.19-1.34,1.61-.44,4.32-1.8,5.91,1.35-7.65-3.47,1.64-5.73,3-.23-2.84.26-7.4-3-8.57-.43-6-5.33,3.08-4.87,7-6.11-9.19,4.11,13.84,2.39,20.33-3.42-9.51-9.22-18.3-14.08-27.5-.74-1.46-2.2-.52-3.25-2.61-.31-.64-1.28-1.54-1.78-1-2.42,4.8,7.12,17.14,8.29,23.44-8.31-7.16,3.72,11.18,4.87,13.52-2.86-.65,2.71,6.64,3,8.06-2.63.18-2.34-4.37-5.11-4.28-.56-.34-.57-1.14-.84-1.73-.58-1.27-2.31-1.54-3.15-2.64-.58-1-1.87-2.45-1.57-.65-2-2.31-3.67-4.65-6.88-5.43-4.68-1.82-15-10.55-12.87-5.25-2.86-2.52-4.16-.71-1.38,1.43,7.21,5.46,16.67,8.41,22.11,16C85.32,528.28,76.69,521.57,67,522c-.71-.45-2.44-.81-2.26.49,11.85,6.3,29.5,8.92,35.05,23.09-7.38-6.62-35.59-8.23-37.72-6.35-3.38.16-9.23-.13-9.4,1.12,3.82,2.23,23.29.57,28.9,1.53,4.34,0-.88.72,8.67,1.44a16.3,16.3,0,0,1,7.06,2.25c-11.14-1.84-28.51-2.6-42,1.61C44.82,549,46,551.39,46,551.39c-30.62,16.32,39.63-17.93,56.16-1-10.17-6-23.88,2-24.85,2-5.78.08-4.75,1.92-5.22,2-2.65.48-1.48,1.6-2.33,1.77-6.58,1.28-5,2.79-5.78,3.29-6.66,4.25-6.26,5.62-7.14,8.91-.68,2.54-6.58,5.94-5.62,6.82,7.7-3.91,29.52-30.77,49-25.21C98,548.4,67.6,560.24,67.21,565c-.08.89-5.54,3.38-8.1,5.06s-2.65,4.5-3.7,6.91-4.33,5.69-3.69,5.94c.54.74,23.4-25.9,29.94-25.45-2.51.5-20.73,15.94-18.7,19.59,1,.8,5.3-6.35,9.31-10.68s10.6-7.79,10.6-7.79c.54,0-19.74,18.38-15,20.23-3.58,5.75-.59,5.66,2.24-1.28,3-6.08,6.81-7.19,10.09-12.92-1,7.44,11.34-20.33,22.81-12.67-8.65,1-21.74,39-21.26,40.68,1.29.56,1.85-3.21,3.37-5.62,7.7-9.84,5.6-27.1,17.91-34.32,10,52.78-1.91,228.78,1.12,277.14-.64,12.19,7.06,5.14,7.06,5.14-2.56-58.35,1.44-223.26.36-280.46,5.11,6.55,5.09,15.51,9.3,22.6,1.13,5.46,1.13,10.87,4.67,15.24,5.41,4.78-3-23.19-4.7-24.86a142.53,142.53,0,0,0-8.54-14.13c.43-3.18,4.45-.81,6.43.7,4.24,2.94,4.86,8.55,7.89,12.34,3.29,2,3.46,6.57,6.65,8.48,4.38,3.18,2.85-.35,1.38-3.08-3-8.86-8.93-18-18.64-20.65,12.54-.59,24.47,2.86,36.36,6.36,12.28,4-4.64-3.8-8-3.85,2.63-3-29.15-4.55-32.05-3,15-9.11,34.85-2.93,48.87,5.43,1.22,1,1.55-.24.43-1-3.38-3.81-8.51-4.22-12.31-7.06-2-.85-3.28-3.51-5.31-3.72-3.19-.2-3.19-2-5-1.81-3.61.33-2.66-1.09-4.3-1.08-4.51,1.42-9.33,1.14-13.65,3.16,10.08-6.52,23.61-2.35,34.82-5.4C158.16,538.37,176.81,543.22,173.89,540.21Z"/><path class="cls-1" d="M113.69,544.22c2.4-3.85,6.3-6.23,10.34-8.08Q119.07,540.43,113.69,544.22Z"/><path class="cls-1" d="M117.1,536A96.42,96.42,0,0,1,129,525.26,43.15,43.15,0,0,1,117.1,536Z"/><path class="cls-1" d="M128.51,520.63c2.4-1.88,4.92-3.62,7.4-5.4-5.25,5.93-11.83,10.33-17.76,15.64A65.58,65.58,0,0,1,128.51,520.63Z"/></g></svg>