<svg id="Places" xmlns="http://www.w3.org/2000/svg" xmlns:xlink="http://www.w3.org/1999/xlink" width="21.2cm" height="21.2cm" viewBox="0 0 601 601"><defs><style>.cls-1{fill:#153962;}.cls-2{fill:#2369a3;}.cls-3{fill:#416691;}.cls-4{opacity:0.74;}.cls-5{fill:#1f5c97;}.cls-6{fill:#a4d5ed;}.cls-7{fill:#b1dcf2;}.cls-8{fill:#c5e2f3;}.cls-9{fill:#0c4d82;}.cls-10{fill:#0b4575;}.cls-11{fill:#6486c0;}.cls-12{fill:#2e2e36;}.cls-13{fill:#1e3c5f;}.cls-14{fill:#2871b0;}.cls-15{fill:url(#linear-gradient);}.cls-16{fill:url(#linear-gradient-2);}.cls-17{fill:#12345c;}.cls-18{fill:#205d97;}.cls-19{fill:#2e71b5;}.cls-20{fill:#2c72b5;}.cls-21{fill:#213b5c;}.cls-22{fill:#06508c;}.cls-23{fill:#075a9e;}.cls-24{fill:#293140;}.cls-25{fill:#25334d;}.cls-26{opacity:0.2;}.cls-27{fill:#273245;}.cls-28{fill:#223454;}.cls-29{fill:#1e375e;}.cls-30{fill:#193761;}.cls-31{fill:#073e6b;}</style><linearGradient id="linear-gradient" x1="0.2" y1="258.61" x2="511.95" y2="258.61" gradientUnits="userSpaceOnUse"><stop offset="0" stop-color="#8fa2b1"/><stop offset="0.52" stop-color="#abb6c6"/><stop offset="0.76" stop-color="#a9b4c4"/><stop offset="0.89" stop-color="#a1afbe"/><stop offset="1" stop-color="#93a5b4"/></linearGradient><linearGradient id="linear-gradient-2" x1="602.55" y1="365.84" x2="509.56" y2="269.23" gradientUnits="userSpaceOnUse"><stop offset="0" stop-color="#6b8bb4"/><stop offset="1" stop-color="#90a3c6"/></linearGradient></defs><g id="background"><rect class="cls-1" width="601" height="601"/></g><g id="water"><polygon class="cls-1" points="600.65 601 0 601 0 253.45 505.57 253.45 600.65 358.96 600.65 601"/></g><g id="stars"><circle class="cls-2" cx="25.4" cy="22.97" r="0.74"/><circle class="cls-2" cx="58.48" cy="26.87" r="0.74"/><circle class="cls-2" cx="51.89" cy="43.34" r="0.74"/><circle class="cls-2" cx="41.27" cy="63.45" r="0.74"/><circle class="cls-2" cx="47.4" cy="70.66" r="0.74"/><circle class="cls-2" cx="42.86" cy="115.64" r="0.74"/><circle class="cls-2" cx="63.99" cy="209.63" r="0.74"/><circle class="cls-2" cx="20.37" cy="114.28" r="0.74"/><circle class="cls-2" cx="15.03" cy="108.26" r="0.74"/><circle class="cls-2" cx="8.78" cy="20" r="0.74"/><circle class="cls-2" cx="9.12" cy="33.52" r="0.74"/><circle class="cls-2" cx="62.96" cy="12.05" r="0.74"/><circle class="cls-2" cx="90.22" cy="13.07" r="0.74"/><circle class="cls-2" cx="99.43" cy="61.01" r="0.52"/><circle class="cls-2" cx="64.33" cy="66.29" r="0.74"/><circle class="cls-2" cx="79.43" cy="84.86" r="0.74"/><circle class="cls-2" cx="108.85" cy="146.71" r="0.74"/><circle class="cls-2" cx="52.23" cy="184.42" r="0.74"/><circle class="cls-2" cx="124.07" cy="104.91" r="0.74"/><circle class="cls-2" cx="148.84" cy="66.57" r="0.74"/><circle class="cls-2" cx="88.86" cy="126.55" r="0.74"/><circle class="cls-2" cx="127.54" cy="16.99" r="0.74"/><circle class="cls-2" cx="174.9" cy="9.72" r="0.74"/><circle class="cls-2" cx="167.24" cy="53.11" r="0.74"/><circle class="cls-2" cx="183.65" cy="61.52" r="0.52"/><circle class="cls-2" cx="173.6" cy="86.56" r="0.52"/><circle class="cls-2" cx="160.14" cy="103.77" r="0.74"/><circle class="cls-2" cx="160.37" cy="139.48" r="0.74"/><circle class="cls-2" cx="147.1" cy="176.65" r="0.74"/><circle class="cls-2" cx="137.36" cy="135.94" r="0.74"/><circle class="cls-2" cx="183.38" cy="161.6" r="0.74"/><circle class="cls-2" cx="185.89" cy="292.58" r="0.74"/><circle class="cls-2" cx="154.18" cy="282.1" r="0.74"/><circle class="cls-2" cx="139.13" cy="211.9" r="0.74"/><circle class="cls-2" cx="211.7" cy="234.91" r="0.74"/><circle class="cls-2" cx="185.15" cy="182.69" r="0.74"/><circle class="cls-2" cx="86.92" cy="223.55" r="0.74"/><circle class="cls-2" cx="46.21" cy="282.84" r="0.74"/><circle class="cls-2" cx="39.28" cy="226.2" r="0.74"/><circle class="cls-2" cx="180.87" cy="107.12" r="0.74"/><circle class="cls-2" cx="187.91" cy="98.03" r="0.74"/><circle class="cls-2" cx="193.82" cy="75.54" r="0.74"/><circle class="cls-2" cx="207.67" cy="57.82" r="0.74"/><circle class="cls-2" cx="185.87" cy="43.97" r="0.74"/><circle class="cls-2" cx="491.64" cy="5.97" r="0.74"/><circle class="cls-2" cx="508.05" cy="14.38" r="0.52"/><circle class="cls-2" cx="498" cy="39.42" r="0.52"/><circle class="cls-2" cx="518.22" cy="28.41" r="0.74"/><circle class="cls-2" cx="532.08" cy="10.69" r="0.74"/><circle class="cls-2" cx="207.67" cy="24.03" r="0.52"/><circle class="cls-2" cx="221.7" cy="4.95" r="0.74"/><circle class="cls-2" cx="213.75" cy="111.95" r="0.74"/><circle class="cls-2" cx="200.35" cy="127.17" r="0.74"/><circle class="cls-2" cx="232.21" cy="51.69" r="0.74"/><circle class="cls-2" cx="223.12" cy="26.02" r="0.74"/><circle class="cls-2" cx="235.31" cy="112.16" r="0.74"/><circle class="cls-2" cx="265.32" cy="21.76" r="0.52"/><circle class="cls-2" cx="248.96" cy="14.95" r="0.74"/><circle class="cls-2" cx="246.46" cy="3.59" r="0.74"/><circle class="cls-2" cx="277.13" cy="10.4" r="0.74"/><circle class="cls-2" cx="271" cy="74.92" r="0.74"/><circle class="cls-2" cx="282.91" cy="217.57" r="0.74"/><circle class="cls-2" cx="304.24" cy="199.87" r="0.74"/><circle class="cls-2" cx="318.35" cy="178.19" r="0.74"/><circle class="cls-2" cx="342.88" cy="187.28" r="0.74"/><circle class="cls-2" cx="353.65" cy="213.8" r="0.74"/><circle class="cls-2" cx="270.32" cy="52.96" r="0.74"/><circle class="cls-2" cx="294.98" cy="21.59" r="0.74"/><circle class="cls-2" cx="312.86" cy="67.93" r="0.74"/><circle class="cls-2" cx="294.08" cy="86.11" r="0.52"/><circle class="cls-2" cx="305.89" cy="135.18" r="0.74"/><circle class="cls-2" cx="333.15" cy="99.13" r="0.74"/><circle class="cls-2" cx="302.25" cy="105.23" r="0.74"/><circle class="cls-2" cx="334.36" cy="55.21" r="0.52"/><circle class="cls-2" cx="355.13" cy="64.77" r="0.74"/><circle class="cls-2" cx="342.79" cy="84.46" r="0.74"/><circle class="cls-2" cx="370.1" cy="102.12" r="0.74"/><circle class="cls-2" cx="349.43" cy="108.14" r="0.74"/><circle class="cls-2" cx="300.3" cy="161.7" r="0.74"/><circle class="cls-2" cx="327.28" cy="188.79" r="0.74"/><circle class="cls-2" cx="369.37" cy="163.06" r="0.74"/><circle class="cls-2" cx="382.86" cy="178.49" r="0.74"/><circle class="cls-2" cx="384.38" cy="209.39" r="0.74"/><circle class="cls-2" cx="443.75" cy="191.21" r="0.74"/><circle class="cls-2" cx="426.01" cy="172.6" r="0.74"/><circle class="cls-2" cx="441.76" cy="165.03" r="0.74"/><circle class="cls-2" cx="461.31" cy="137.47" r="0.74"/><circle class="cls-2" cx="481.31" cy="181.09" r="0.74"/><circle class="cls-2" cx="505.97" cy="173.51" r="0.74"/><circle class="cls-2" cx="516.57" cy="163.21" r="0.74"/><circle class="cls-2" cx="521.89" cy="187.31" r="0.74"/><circle class="cls-2" cx="554.61" cy="144.91" r="0.74"/><circle class="cls-2" cx="583.38" cy="181.56" r="0.74"/><circle class="cls-2" cx="443.44" cy="170.48" r="0.74"/><circle class="cls-2" cx="392.69" cy="185.33" r="0.53"/><circle class="cls-2" cx="458.36" cy="199.87" r="0.53"/><circle class="cls-2" cx="525.53" cy="213.12" r="0.53"/><circle class="cls-2" cx="553.47" cy="187.75" r="0.53"/><circle class="cls-2" cx="592.17" cy="204.79" r="0.53"/><circle class="cls-2" cx="358.52" cy="133.81" r="0.74"/><circle class="cls-2" cx="373.28" cy="61.12" r="0.74"/><circle class="cls-2" cx="361.02" cy="45.9" r="0.74"/><circle class="cls-2" cx="375.1" cy="16.76" r="0.74"/><circle class="cls-2" cx="384.42" cy="30" r="0.74"/><circle class="cls-2" cx="399.86" cy="13.64" r="0.74"/><circle class="cls-2" cx="413.49" cy="42.95" r="0.74"/><circle class="cls-2" cx="397.14" cy="56.35" r="0.74"/><circle class="cls-2" cx="405.09" cy="74.52" r="0.74"/><circle class="cls-2" cx="395.55" cy="87.93" r="0.74"/><circle class="cls-2" cx="410.54" cy="100.87" r="0.74"/><circle class="cls-2" cx="416.79" cy="130.35" r="0.58"/><circle class="cls-2" cx="339.25" cy="160.52" r="0.58"/><circle class="cls-2" cx="400.77" cy="119.5" r="0.74"/><circle class="cls-2" cx="391" cy="140.8" r="0.74"/><circle class="cls-2" cx="404.46" cy="155.34" r="0.74"/><circle class="cls-2" cx="415.77" cy="108.03" r="0.74"/><circle class="cls-2" cx="426.9" cy="28.41" r="0.74"/><circle class="cls-2" cx="432.12" cy="20.4" r="0.74"/><circle class="cls-2" cx="416.39" cy="11.08" r="0.74"/><circle class="cls-2" cx="446.89" cy="5.92" r="0.74"/><circle class="cls-2" cx="446.89" cy="22.95" r="0.74"/><circle class="cls-2" cx="461.65" cy="12.28" r="0.74"/><circle class="cls-2" cx="450.52" cy="47.26" r="0.74"/><circle class="cls-2" cx="452.57" cy="65.89" r="0.74"/><circle class="cls-2" cx="463.87" cy="64.47" r="0.74"/><circle class="cls-2" cx="455.52" cy="82.93" r="0.74"/><circle class="cls-2" cx="450.24" cy="93.55" r="0.74"/><circle class="cls-2" cx="418.04" cy="59.07" r="0.74"/><circle class="cls-2" cx="562.29" cy="7.9" r="0.74"/><circle class="cls-2" cx="545.94" cy="21.31" r="0.74"/><circle class="cls-2" cx="546.56" cy="48.11" r="0.74"/><circle class="cls-2" cx="566.84" cy="24.03" r="0.74"/><circle class="cls-2" cx="431.89" cy="75.37" r="0.55"/><circle class="cls-2" cx="434.62" cy="46.24" r="0.55"/><circle class="cls-2" cx="335.88" cy="70.53" r="0.74"/><circle class="cls-2" cx="321.34" cy="22.23" r="0.74"/><circle class="cls-2" cx="338" cy="21.29" r="0.74"/><circle class="cls-2" cx="318.78" cy="8.74" r="0.74"/><circle class="cls-2" cx="303.64" cy="44.78" r="0.74"/><circle class="cls-2" cx="253.51" cy="69.47" r="0.52"/><circle class="cls-2" cx="219.43" cy="82.87" r="0.74"/><circle class="cls-2" cx="255.34" cy="122.76" r="0.74"/><ellipse class="cls-2" cx="261.97" cy="160.34" rx="0.51" ry="0.74"/><circle class="cls-2" cx="258.79" cy="99.91" r="0.74"/><circle class="cls-2" cx="276.96" cy="114.68" r="0.74"/><circle class="cls-2" cx="270.75" cy="121.59" r="0.74"/><circle class="cls-2" cx="535.03" cy="157.16" r="0.74"/><circle class="cls-2" cx="531.4" cy="127.21" r="0.74"/><circle class="cls-2" cx="485.15" cy="150.74" r="0.74"/><circle class="cls-2" cx="487.93" cy="121.89" r="0.74"/><circle class="cls-2" cx="574.11" cy="133.25" r="0.74"/><circle class="cls-2" cx="499.9" cy="143.56" r="0.74"/><circle class="cls-2" cx="463.05" cy="118.76" r="0.74"/><circle class="cls-2" cx="227.74" cy="149.89" r="0.74"/><circle class="cls-2" cx="284.23" cy="68.5" r="0.74"/><circle class="cls-2" cx="591.98" cy="74.64" r="0.74"/><circle class="cls-2" cx="592.8" cy="96.73" r="0.52"/><circle class="cls-2" cx="574.49" cy="69.18" r="0.52"/><circle class="cls-2" cx="590.46" cy="16.02" r="0.74"/><circle class="cls-2" cx="592" cy="127.17" r="0.74"/><circle class="cls-2" cx="541.49" cy="78.97" r="0.74"/><circle class="cls-2" cx="540.81" cy="57.01" r="0.74"/><circle class="cls-2" cx="564.56" cy="90.16" r="0.52"/><circle class="cls-2" cx="572.74" cy="109.28" r="0.74"/><circle class="cls-2" cx="523.99" cy="73.52" r="0.52"/><circle class="cls-2" cx="529.28" cy="103.96" r="0.74"/><circle class="cls-2" cx="511.46" cy="106.72" r="0.74"/><circle class="cls-2" cx="547.45" cy="118.73" r="0.74"/><circle class="cls-2" cx="554.72" cy="72.55" r="0.74"/><circle class="cls-2" cx="556.56" cy="56.75" r="0.74"/><circle class="cls-2" cx="264.69" cy="34.31" r="0.74"/><circle class="cls-2" cx="69.44" cy="91.56" r="0.74"/><circle class="cls-2" cx="26.22" cy="78.1" r="0.52"/><circle class="cls-2" cx="48.54" cy="149.83" r="0.74"/><circle class="cls-2" cx="42.63" cy="198.56" r="0.74"/><circle class="cls-2" cx="8.84" cy="218.95" r="0.74"/><circle class="cls-2" cx="16.96" cy="182.77" r="0.74"/><circle class="cls-2" cx="106.98" cy="175.56" r="0.74"/><circle class="cls-2" cx="106.47" cy="183.79" r="0.74"/><circle class="cls-2" cx="111.86" cy="210.54" r="0.74"/><circle class="cls-2" cx="223.67" cy="205.92" r="0.74"/><circle class="cls-2" cx="209.43" cy="177.15" r="0.74"/><circle class="cls-2" cx="234.88" cy="175.03" r="0.74"/><circle class="cls-2" cx="246.99" cy="160.19" r="0.74"/><circle class="cls-2" cx="250.02" cy="195.93" r="0.74"/><circle class="cls-2" cx="174.34" cy="210.77" r="0.74"/><circle class="cls-2" cx="40.25" cy="133.53" r="0.52"/><circle class="cls-2" cx="17.42" cy="159.88" r="0.74"/><circle class="cls-2" cx="84.26" cy="157.84" r="0.46"/><circle class="cls-2" cx="273.37" cy="203.2" r="0.46"/><circle class="cls-2" cx="34.85" cy="161.02" r="0.74"/><circle class="cls-2" cx="20.31" cy="197.37" r="0.74"/><circle class="cls-2" cx="110.27" cy="83.55" r="0.74"/><circle class="cls-2" cx="109.08" cy="93.6" r="0.26"/><circle class="cls-2" cx="113.34" cy="67.88" r="0.74"/><circle class="cls-2" cx="123.11" cy="55.61" r="0.52"/><circle class="cls-2" cx="114.93" cy="40.62" r="0.74"/><circle class="cls-2" cx="154.46" cy="27.89" r="0.52"/><circle class="cls-2" cx="83.35" cy="43.57" r="0.74"/><circle class="cls-2" cx="76.59" cy="105.19" r="0.52"/><circle class="cls-2" cx="95.56" cy="8.19" r="0.52"/><circle class="cls-2" cx="470.46" cy="48.79" r="0.74"/><circle class="cls-2" cx="483.69" cy="88.03" r="0.52"/><circle class="cls-2" cx="507.77" cy="52.71" r="0.74"/><circle class="cls-2" cx="438.26" cy="119.28" r="0.74"/><circle class="cls-2" cx="467.33" cy="100.99" r="0.74"/><circle class="cls-2" cx="503.34" cy="91.33" r="0.52"/><circle class="cls-2" cx="486.42" cy="65.66" r="0.74"/><circle class="cls-2" cx="474.09" cy="30.85" r="0.52"/><circle class="cls-2" cx="40.81" cy="37.15" r="0.52"/><circle class="cls-2" cx="29.23" cy="49.31" r="0.74"/><circle class="cls-3" cx="479.52" cy="389.1" r="0.74"/><circle class="cls-3" cx="534.89" cy="369.96" r="0.74"/><circle class="cls-3" cx="548.18" cy="384.5" r="0.74"/><circle class="cls-3" cx="586.35" cy="435.16" r="0.74"/><circle class="cls-3" cx="565.11" cy="484.74" r="0.74"/><circle class="cls-3" cx="516.6" cy="467.42" r="0.74"/><circle class="cls-3" cx="411.31" cy="472.19" r="0.74"/><circle class="cls-3" cx="442.66" cy="481.73" r="0.74"/><circle class="cls-3" cx="465.6" cy="448.79" r="0.74"/><circle class="cls-3" cx="458.9" cy="416.82" r="0.74"/><circle class="cls-3" cx="449.81" cy="411.14" r="0.74"/><circle class="cls-3" cx="398.25" cy="381.89" r="0.74"/><circle class="cls-3" cx="361.84" cy="448" r="0.74"/><circle class="cls-3" cx="344.84" cy="365.19" r="0.74"/><circle class="cls-3" cx="309.14" cy="432.32" r="0.74"/><circle class="cls-3" cx="259.33" cy="362.41" r="0.74"/><circle class="cls-3" cx="323.35" cy="316.29" r="0.74"/><circle class="cls-3" cx="174.18" cy="352.49" r="0.74"/><circle class="cls-3" cx="173.25" cy="401.54" r="0.74"/><circle class="cls-3" cx="220.65" cy="428.04" r="0.74"/><circle class="cls-3" cx="255.81" cy="467.44" r="0.74"/><circle class="cls-3" cx="231.12" cy="488.3" r="0.74"/><circle class="cls-3" cx="157.21" cy="463.8" r="0.74"/><circle class="cls-3" cx="142.67" cy="473.63" r="0.74"/><circle class="cls-3" cx="105.72" cy="420.64" r="0.74"/><circle class="cls-3" cx="95.73" cy="373.84" r="0.74"/><circle class="cls-3" cx="114.05" cy="302.64" r="0.74"/><circle class="cls-3" cx="28.33" cy="341.57" r="0.74"/><circle class="cls-3" cx="8.34" cy="380.49" r="0.74"/><circle class="cls-3" cx="24.09" cy="413.98" r="0.74"/><circle class="cls-3" cx="60.13" cy="398.23" r="0.74"/><circle class="cls-3" cx="28.18" cy="446.07" r="0.74"/><circle class="cls-3" cx="16.37" cy="454.4" r="0.74"/><circle class="cls-3" cx="24.39" cy="489.06" r="0.74"/><circle class="cls-3" cx="86.92" cy="456.82" r="0.74"/><circle class="cls-3" cx="87.83" cy="489.99" r="0.74"/><circle class="cls-3" cx="246.27" cy="405.17" r="0.74"/><circle class="cls-3" cx="552.8" cy="343.86" r="0.74"/><circle class="cls-3" cx="567.26" cy="283.69" r="0.74"/><circle class="cls-3" cx="508.08" cy="313.62" r="0.74"/><g class="cls-4"><circle class="cls-5" cx="575.86" cy="477.57" r="0.74"/><circle class="cls-5" cx="542.79" cy="473.67" r="0.74"/><circle class="cls-5" cx="549.37" cy="457.2" r="0.74"/><circle class="cls-5" cx="559.99" cy="437.09" r="0.74"/><circle class="cls-5" cx="553.86" cy="429.88" r="0.74"/><circle class="cls-5" cx="558.4" cy="384.9" r="0.74"/><circle class="cls-5" cx="537.28" cy="290.91" r="0.74"/><circle class="cls-5" cx="580.89" cy="386.26" r="0.74"/><circle class="cls-5" cx="586.23" cy="392.28" r="0.74"/><circle class="cls-5" cx="592.48" cy="480.54" r="0.74"/><circle class="cls-5" cx="592.14" cy="467.02" r="0.74"/><circle class="cls-5" cx="538.3" cy="488.49" r="0.74"/><circle class="cls-5" cx="511.04" cy="487.47" r="0.74"/><circle class="cls-5" cx="501.84" cy="439.53" r="0.52"/><circle class="cls-5" cx="536.94" cy="434.25" r="0.74"/><circle class="cls-5" cx="521.83" cy="415.68" r="0.74"/><circle class="cls-5" cx="492.41" cy="353.83" r="0.74"/><circle class="cls-5" cx="549.03" cy="316.12" r="0.74"/><circle class="cls-5" cx="477.19" cy="395.63" r="0.74"/><circle class="cls-5" cx="452.43" cy="433.97" r="0.74"/><circle class="cls-5" cx="512.4" cy="373.99" r="0.74"/><circle class="cls-5" cx="473.72" cy="483.55" r="0.74"/><circle class="cls-5" cx="426.36" cy="490.82" r="0.74"/><circle class="cls-5" cx="434.03" cy="447.43" r="0.74"/><circle class="cls-5" cx="417.61" cy="439.02" r="0.52"/><circle class="cls-5" cx="427.66" cy="413.98" r="0.52"/><circle class="cls-5" cx="441.12" cy="396.77" r="0.74"/><circle class="cls-5" cx="420.4" cy="393.42" r="0.74"/><circle class="cls-5" cx="413.35" cy="402.5" r="0.74"/><circle class="cls-5" cx="407.45" cy="425" r="0.74"/><circle class="cls-5" cx="393.59" cy="442.71" r="0.74"/><circle class="cls-5" cx="415.4" cy="456.57" r="0.74"/><circle class="cls-5" cx="109.62" cy="494.57" r="0.74"/><circle class="cls-5" cx="93.21" cy="486.16" r="0.52"/><circle class="cls-5" cx="103.26" cy="461.12" r="0.52"/><circle class="cls-5" cx="83.04" cy="472.13" r="0.74"/><circle class="cls-5" cx="69.18" cy="489.85" r="0.74"/><circle class="cls-5" cx="393.59" cy="476.51" r="0.52"/><circle class="cls-5" cx="379.56" cy="495.59" r="0.74"/><circle class="cls-5" cx="387.51" cy="388.59" r="0.74"/><circle class="cls-5" cx="400.92" cy="373.37" r="0.74"/><circle class="cls-5" cx="369.05" cy="448.85" r="0.74"/><circle class="cls-5" cx="378.14" cy="474.52" r="0.74"/><circle class="cls-5" cx="365.95" cy="388.38" r="0.74"/><circle class="cls-5" cx="335.94" cy="478.78" r="0.52"/><circle class="cls-5" cx="352.3" cy="485.59" r="0.74"/><circle class="cls-5" cx="354.8" cy="496.95" r="0.74"/><circle class="cls-5" cx="324.13" cy="490.14" r="0.74"/><circle class="cls-5" cx="330.26" cy="425.62" r="0.74"/><circle class="cls-5" cx="318.36" cy="282.97" r="0.74"/><circle class="cls-5" cx="297.02" cy="300.67" r="0.74"/><circle class="cls-5" cx="282.92" cy="322.35" r="0.74"/><circle class="cls-5" cx="258.38" cy="313.26" r="0.74"/><circle class="cls-5" cx="247.61" cy="286.74" r="0.74"/><circle class="cls-5" cx="330.95" cy="447.58" r="0.74"/><circle class="cls-5" cx="306.28" cy="478.95" r="0.74"/><circle class="cls-5" cx="288.41" cy="432.61" r="0.74"/><circle class="cls-5" cx="307.19" cy="414.43" r="0.52"/><circle class="cls-5" cx="295.37" cy="365.36" r="0.74"/><circle class="cls-5" cx="268.11" cy="401.41" r="0.74"/><circle class="cls-5" cx="299.01" cy="395.31" r="0.74"/><circle class="cls-5" cx="266.9" cy="445.33" r="0.52"/><circle class="cls-5" cx="246.13" cy="435.77" r="0.74"/><circle class="cls-5" cx="258.48" cy="416.08" r="0.74"/><circle class="cls-5" cx="231.16" cy="398.42" r="0.74"/><circle class="cls-5" cx="251.83" cy="392.4" r="0.74"/><circle class="cls-5" cx="300.96" cy="338.84" r="0.74"/><circle class="cls-5" cx="273.98" cy="311.75" r="0.74"/><circle class="cls-5" cx="231.9" cy="337.48" r="0.74"/><circle class="cls-5" cx="218.4" cy="322.05" r="0.74"/><circle class="cls-5" cx="216.89" cy="291.15" r="0.74"/><circle class="cls-5" cx="157.52" cy="309.33" r="0.74"/><circle class="cls-5" cx="175.26" cy="327.93" r="0.74"/><circle class="cls-5" cx="159.5" cy="335.51" r="0.74"/><circle class="cls-5" cx="139.95" cy="363.07" r="0.74"/><circle class="cls-5" cx="119.96" cy="319.45" r="0.74"/><circle class="cls-5" cx="95.29" cy="327.03" r="0.74"/><circle class="cls-5" cx="84.69" cy="337.32" r="0.74"/><circle class="cls-5" cx="79.37" cy="313.23" r="0.74"/><circle class="cls-5" cx="46.66" cy="355.63" r="0.74"/><circle class="cls-5" cx="17.88" cy="318.98" r="0.74"/><circle class="cls-5" cx="157.82" cy="330.06" r="0.74"/><circle class="cls-5" cx="208.57" cy="315.21" r="0.53"/><circle class="cls-5" cx="142.9" cy="300.67" r="0.53"/><circle class="cls-5" cx="75.73" cy="287.42" r="0.53"/><circle class="cls-5" cx="47.79" cy="312.79" r="0.53"/><circle class="cls-5" cx="9.1" cy="295.75" r="0.53"/><circle class="cls-5" cx="242.75" cy="366.72" r="0.74"/><circle class="cls-5" cx="227.98" cy="439.42" r="0.74"/><circle class="cls-5" cx="240.25" cy="454.64" r="0.74"/><circle class="cls-5" cx="226.16" cy="483.78" r="0.74"/><circle class="cls-5" cx="216.85" cy="470.54" r="0.74"/><circle class="cls-5" cx="201.4" cy="486.9" r="0.74"/><circle class="cls-5" cx="187.77" cy="457.59" r="0.74"/><circle class="cls-5" cx="204.13" cy="444.19" r="0.74"/><circle class="cls-5" cx="196.17" cy="426.02" r="0.74"/><circle class="cls-5" cx="205.72" cy="412.61" r="0.74"/><circle class="cls-5" cx="190.72" cy="399.67" r="0.74"/><circle class="cls-5" cx="184.47" cy="370.19" r="0.58"/><circle class="cls-5" cx="262.02" cy="340.02" r="0.58"/><circle class="cls-5" cx="200.49" cy="381.04" r="0.74"/><circle class="cls-5" cx="210.26" cy="359.74" r="0.74"/><circle class="cls-5" cx="196.8" cy="345.2" r="0.74"/><circle class="cls-5" cx="185.5" cy="392.51" r="0.74"/><circle class="cls-5" cx="174.37" cy="472.13" r="0.74"/><circle class="cls-5" cx="169.14" cy="480.14" r="0.74"/><circle class="cls-5" cx="184.87" cy="489.46" r="0.74"/><circle class="cls-5" cx="154.37" cy="494.62" r="0.74"/><circle class="cls-5" cx="154.37" cy="477.59" r="0.74"/><circle class="cls-5" cx="139.61" cy="488.26" r="0.74"/><circle class="cls-5" cx="150.74" cy="453.28" r="0.74"/><circle class="cls-5" cx="148.7" cy="434.65" r="0.74"/><circle class="cls-5" cx="137.39" cy="436.07" r="0.74"/><circle class="cls-5" cx="145.74" cy="417.61" r="0.74"/><circle class="cls-5" cx="151.02" cy="406.99" r="0.74"/><circle class="cls-5" cx="183.23" cy="441.47" r="0.74"/><circle class="cls-5" cx="38.97" cy="492.64" r="0.74"/><circle class="cls-5" cx="55.33" cy="479.23" r="0.74"/><circle class="cls-5" cx="54.7" cy="452.43" r="0.74"/><circle class="cls-5" cx="34.43" cy="476.51" r="0.74"/><circle class="cls-5" cx="169.37" cy="425.17" r="0.55"/><circle class="cls-5" cx="166.64" cy="454.3" r="0.55"/><circle class="cls-5" cx="265.39" cy="430.01" r="0.74"/><circle class="cls-5" cx="279.93" cy="478.31" r="0.74"/><circle class="cls-5" cx="263.27" cy="479.25" r="0.74"/><circle class="cls-5" cx="282.48" cy="491.8" r="0.74"/><circle class="cls-5" cx="297.63" cy="455.76" r="0.74"/><circle class="cls-5" cx="347.76" cy="431.07" r="0.52"/><circle class="cls-5" cx="381.83" cy="417.67" r="0.74"/><circle class="cls-5" cx="345.92" cy="377.78" r="0.74"/><ellipse class="cls-5" cx="339.29" cy="340.2" rx="0.51" ry="0.74"/><circle class="cls-5" cx="342.47" cy="400.63" r="0.74"/><circle class="cls-5" cx="324.3" cy="385.86" r="0.74"/><circle class="cls-5" cx="330.51" cy="378.95" r="0.74"/><circle class="cls-5" cx="66.23" cy="343.38" r="0.74"/><circle class="cls-5" cx="69.87" cy="373.33" r="0.74"/><circle class="cls-5" cx="116.11" cy="349.8" r="0.74"/><circle class="cls-5" cx="113.33" cy="378.65" r="0.74"/><circle class="cls-5" cx="27.16" cy="367.29" r="0.74"/><circle class="cls-5" cx="101.37" cy="356.98" r="0.74"/><circle class="cls-5" cx="138.22" cy="381.78" r="0.74"/><circle class="cls-5" cx="373.52" cy="350.65" r="0.74"/><circle class="cls-5" cx="317.03" cy="432.04" r="0.74"/><circle class="cls-5" cx="9.28" cy="425.9" r="0.74"/><circle class="cls-5" cx="8.47" cy="403.81" r="0.52"/><circle class="cls-5" cx="26.77" cy="431.36" r="0.52"/><circle class="cls-5" cx="10.8" cy="484.51" r="0.74"/><circle class="cls-5" cx="9.27" cy="373.37" r="0.74"/><circle class="cls-5" cx="59.78" cy="421.57" r="0.74"/><circle class="cls-5" cx="60.46" cy="443.53" r="0.74"/><circle class="cls-5" cx="36.7" cy="410.38" r="0.52"/><circle class="cls-5" cx="28.52" cy="391.26" r="0.74"/><circle class="cls-5" cx="77.27" cy="427.02" r="0.52"/><circle class="cls-5" cx="71.99" cy="396.58" r="0.74"/><circle class="cls-5" cx="89.8" cy="393.82" r="0.74"/><circle class="cls-5" cx="53.81" cy="381.81" r="0.74"/><circle class="cls-5" cx="46.54" cy="427.99" r="0.74"/><circle class="cls-5" cx="44.71" cy="443.79" r="0.74"/><circle class="cls-5" cx="336.57" cy="466.23" r="0.74"/><circle class="cls-5" cx="531.82" cy="408.98" r="0.74"/><circle class="cls-5" cx="575.04" cy="422.44" r="0.52"/><circle class="cls-5" cx="552.72" cy="350.71" r="0.74"/><circle class="cls-5" cx="558.63" cy="301.98" r="0.74"/><circle class="cls-5" cx="592.42" cy="281.59" r="0.74"/><circle class="cls-5" cx="584.3" cy="317.77" r="0.74"/><circle class="cls-5" cx="494.28" cy="324.98" r="0.74"/><circle class="cls-5" cx="494.79" cy="316.75" r="0.74"/><circle class="cls-5" cx="489.4" cy="290" r="0.74"/><circle class="cls-5" cx="377.59" cy="294.62" r="0.74"/><circle class="cls-5" cx="391.83" cy="323.39" r="0.74"/><circle class="cls-5" cx="366.38" cy="325.51" r="0.74"/><circle class="cls-5" cx="354.27" cy="340.35" r="0.74"/><circle class="cls-5" cx="351.24" cy="304.61" r="0.74"/><circle class="cls-5" cx="426.93" cy="289.77" r="0.74"/><circle class="cls-5" cx="561.02" cy="367.01" r="0.52"/><circle class="cls-5" cx="583.85" cy="340.66" r="0.74"/><circle class="cls-5" cx="517" cy="342.7" r="0.46"/><circle class="cls-5" cx="327.89" cy="297.34" r="0.46"/><circle class="cls-5" cx="566.41" cy="339.52" r="0.74"/><circle class="cls-5" cx="580.95" cy="303.17" r="0.74"/><circle class="cls-5" cx="490.99" cy="416.99" r="0.74"/><circle class="cls-5" cx="492.18" cy="406.93" r="0.26"/><circle class="cls-5" cx="487.92" cy="432.66" r="0.74"/><circle class="cls-5" cx="478.15" cy="444.93" r="0.52"/><circle class="cls-5" cx="486.33" cy="459.92" r="0.74"/><circle class="cls-5" cx="446.8" cy="472.64" r="0.52"/><circle class="cls-5" cx="517.91" cy="456.97" r="0.74"/><circle class="cls-5" cx="524.67" cy="395.35" r="0.52"/><circle class="cls-5" cx="505.7" cy="492.35" r="0.52"/><circle class="cls-5" cx="130.81" cy="451.74" r="0.74"/><circle class="cls-5" cx="117.57" cy="412.51" r="0.52"/><circle class="cls-5" cx="93.49" cy="447.83" r="0.74"/><circle class="cls-5" cx="163.01" cy="381.26" r="0.74"/><circle class="cls-5" cx="133.93" cy="399.55" r="0.74"/><circle class="cls-5" cx="97.92" cy="409.21" r="0.52"/><circle class="cls-5" cx="114.85" cy="434.88" r="0.74"/><circle class="cls-5" cx="127.18" cy="469.69" r="0.52"/><circle class="cls-5" cx="560.45" cy="463.39" r="0.52"/><circle class="cls-5" cx="572.03" cy="451.23" r="0.74"/><circle class="cls-3" cx="586.35" cy="521.6" r="0.74"/><circle class="cls-3" cx="565.11" cy="571.18" r="0.74"/><circle class="cls-3" cx="516.6" cy="553.86" r="0.74"/><circle class="cls-3" cx="411.31" cy="558.63" r="0.74"/><circle class="cls-3" cx="442.66" cy="568.17" r="0.74"/><circle class="cls-3" cx="465.6" cy="535.23" r="0.74"/><circle class="cls-3" cx="458.9" cy="503.26" r="0.74"/><circle class="cls-3" cx="449.81" cy="497.58" r="0.74"/><circle class="cls-3" cx="361.84" cy="534.44" r="0.74"/><circle class="cls-3" cx="309.14" cy="518.76" r="0.74"/><circle class="cls-3" cx="220.65" cy="514.48" r="0.74"/><circle class="cls-3" cx="255.81" cy="553.88" r="0.74"/><circle class="cls-3" cx="231.12" cy="574.74" r="0.74"/><circle class="cls-3" cx="157.21" cy="550.24" r="0.74"/><circle class="cls-3" cx="142.67" cy="560.07" r="0.74"/><circle class="cls-3" cx="105.72" cy="507.08" r="0.74"/><circle class="cls-3" cx="24.09" cy="500.42" r="0.74"/><circle class="cls-3" cx="28.18" cy="532.51" r="0.74"/><circle class="cls-3" cx="16.37" cy="540.84" r="0.74"/><circle class="cls-3" cx="24.39" cy="575.5" r="0.74"/><circle class="cls-3" cx="86.92" cy="543.26" r="0.74"/><circle class="cls-3" cx="87.83" cy="576.43" r="0.74"/><circle class="cls-5" cx="575.86" cy="564.01" r="0.74"/><circle class="cls-5" cx="542.79" cy="560.11" r="0.74"/><circle class="cls-5" cx="549.37" cy="543.64" r="0.74"/><circle class="cls-5" cx="559.99" cy="523.53" r="0.74"/><circle class="cls-5" cx="553.86" cy="516.32" r="0.74"/><circle class="cls-5" cx="592.48" cy="566.98" r="0.74"/><circle class="cls-5" cx="592.14" cy="553.46" r="0.74"/><circle class="cls-5" cx="538.3" cy="574.93" r="0.74"/><circle class="cls-5" cx="511.04" cy="573.91" r="0.74"/><circle class="cls-5" cx="501.84" cy="525.97" r="0.52"/><circle class="cls-5" cx="536.94" cy="520.69" r="0.74"/><circle class="cls-5" cx="521.83" cy="502.12" r="0.74"/><circle class="cls-5" cx="452.43" cy="520.41" r="0.74"/><circle class="cls-5" cx="473.72" cy="569.99" r="0.74"/><circle class="cls-5" cx="426.36" cy="577.26" r="0.74"/><circle class="cls-5" cx="434.03" cy="533.87" r="0.74"/><circle class="cls-5" cx="417.61" cy="525.46" r="0.52"/><circle class="cls-5" cx="427.66" cy="500.42" r="0.52"/><circle class="cls-5" cx="407.45" cy="511.43" r="0.74"/><circle class="cls-5" cx="393.59" cy="529.15" r="0.74"/><circle class="cls-5" cx="415.4" cy="543.01" r="0.74"/><circle class="cls-5" cx="109.62" cy="581.01" r="0.74"/><circle class="cls-5" cx="93.21" cy="572.6" r="0.52"/><circle class="cls-5" cx="103.26" cy="547.56" r="0.52"/><circle class="cls-5" cx="83.04" cy="558.57" r="0.74"/><circle class="cls-5" cx="69.18" cy="576.29" r="0.74"/><circle class="cls-5" cx="393.59" cy="562.95" r="0.52"/><circle class="cls-5" cx="379.56" cy="582.03" r="0.74"/><circle class="cls-5" cx="369.05" cy="535.29" r="0.74"/><circle class="cls-5" cx="378.14" cy="560.96" r="0.74"/><circle class="cls-5" cx="335.94" cy="565.22" r="0.52"/><circle class="cls-5" cx="352.3" cy="572.03" r="0.74"/><circle class="cls-5" cx="354.8" cy="583.39" r="0.74"/><circle class="cls-5" cx="324.13" cy="576.58" r="0.74"/><circle class="cls-5" cx="330.26" cy="512.06" r="0.74"/><circle class="cls-5" cx="330.95" cy="534.02" r="0.74"/><circle class="cls-5" cx="306.28" cy="565.39" r="0.74"/><circle class="cls-5" cx="288.41" cy="519.05" r="0.74"/><circle class="cls-5" cx="307.19" cy="500.87" r="0.52"/><circle class="cls-5" cx="266.9" cy="531.77" r="0.52"/><circle class="cls-5" cx="246.13" cy="522.21" r="0.74"/><circle class="cls-5" cx="258.48" cy="502.52" r="0.74"/><circle class="cls-5" cx="227.98" cy="525.86" r="0.74"/><circle class="cls-5" cx="240.25" cy="541.08" r="0.74"/><circle class="cls-5" cx="226.16" cy="570.22" r="0.74"/><circle class="cls-5" cx="216.85" cy="556.98" r="0.74"/><circle class="cls-5" cx="201.4" cy="573.34" r="0.74"/><circle class="cls-5" cx="187.77" cy="544.03" r="0.74"/><circle class="cls-5" cx="204.13" cy="530.63" r="0.74"/><circle class="cls-5" cx="196.17" cy="512.46" r="0.74"/><circle class="cls-5" cx="205.72" cy="499.05" r="0.74"/><circle class="cls-5" cx="174.37" cy="558.57" r="0.74"/><circle class="cls-5" cx="169.14" cy="566.58" r="0.74"/><circle class="cls-5" cx="184.87" cy="575.9" r="0.74"/><circle class="cls-5" cx="154.37" cy="581.06" r="0.74"/><circle class="cls-5" cx="154.37" cy="564.03" r="0.74"/><circle class="cls-5" cx="139.61" cy="574.7" r="0.74"/><circle class="cls-5" cx="150.74" cy="539.72" r="0.74"/><circle class="cls-5" cx="148.7" cy="521.09" r="0.74"/><circle class="cls-5" cx="137.39" cy="522.51" r="0.74"/><circle class="cls-5" cx="145.74" cy="504.05" r="0.74"/><circle class="cls-5" cx="183.23" cy="527.91" r="0.74"/><circle class="cls-5" cx="38.97" cy="579.08" r="0.74"/><circle class="cls-5" cx="55.33" cy="565.67" r="0.74"/><circle class="cls-5" cx="54.7" cy="538.87" r="0.74"/><circle class="cls-5" cx="34.43" cy="562.95" r="0.74"/><circle class="cls-5" cx="169.37" cy="511.61" r="0.55"/><circle class="cls-5" cx="166.64" cy="540.74" r="0.55"/><circle class="cls-5" cx="265.39" cy="516.45" r="0.74"/><circle class="cls-5" cx="279.93" cy="564.75" r="0.74"/><circle class="cls-5" cx="263.27" cy="565.69" r="0.74"/><circle class="cls-5" cx="282.48" cy="578.24" r="0.74"/><circle class="cls-5" cx="297.63" cy="542.2" r="0.74"/><circle class="cls-5" cx="347.76" cy="517.51" r="0.52"/><circle class="cls-5" cx="381.83" cy="504.11" r="0.74"/><circle class="cls-5" cx="317.03" cy="518.48" r="0.74"/><circle class="cls-5" cx="9.28" cy="512.34" r="0.74"/><circle class="cls-5" cx="26.77" cy="517.8" r="0.52"/><circle class="cls-5" cx="10.8" cy="570.95" r="0.74"/><circle class="cls-5" cx="59.78" cy="508.01" r="0.74"/><circle class="cls-5" cx="60.46" cy="529.97" r="0.74"/><circle class="cls-5" cx="36.7" cy="496.82" r="0.52"/><circle class="cls-5" cx="77.27" cy="513.46" r="0.52"/><circle class="cls-5" cx="46.54" cy="514.43" r="0.74"/><circle class="cls-5" cx="44.71" cy="530.23" r="0.74"/><circle class="cls-5" cx="336.57" cy="552.67" r="0.74"/><circle class="cls-5" cx="575.04" cy="508.88" r="0.52"/><circle class="cls-5" cx="490.99" cy="503.43" r="0.74"/><circle class="cls-5" cx="487.92" cy="519.1" r="0.74"/><circle class="cls-5" cx="478.15" cy="531.37" r="0.52"/><circle class="cls-5" cx="486.33" cy="546.36" r="0.74"/><circle class="cls-5" cx="446.8" cy="559.08" r="0.52"/><circle class="cls-5" cx="517.91" cy="543.41" r="0.74"/><circle class="cls-5" cx="505.7" cy="578.79" r="0.52"/><circle class="cls-5" cx="130.81" cy="538.18" r="0.74"/><circle class="cls-5" cx="117.57" cy="498.95" r="0.52"/><circle class="cls-5" cx="93.49" cy="534.27" r="0.74"/><circle class="cls-5" cx="114.85" cy="521.32" r="0.74"/><circle class="cls-5" cx="127.18" cy="556.13" r="0.52"/><circle class="cls-5" cx="560.45" cy="549.83" r="0.52"/><circle class="cls-5" cx="572.03" cy="537.67" r="0.74"/></g></g><g id="clouds"><path class="cls-6" d="M600.87,183.5c-3.94,4.92-5,11.08-9.1,11.15-9.78.18-38.07,2.65-43.68,10.66s15.16,9.27,18.59,18.42c2.27,6.06,6.45,11.22,11,15.8a89.41,89.41,0,0,0,21.61,16.11l.86.43C600.33,231.88,600.68,207.69,600.87,183.5Z"/><path class="cls-7" d="M600.71,200.74c-7.53,1.66-14.15,4.08-16.57,7.52-4.85,6.92,10,8.81,16.33,15.09Z"/><path class="cls-8" d="M600.5,220.69a30.77,30.77,0,0,0-3.33,27.51,33.52,33.52,0,0,0,3,6Q600.3,237.45,600.5,220.69Z"/><path class="cls-9" d="M595.09,180.26c-15.57-4.06-33.79,5-47.4-3.54-4.3-2.71-7.46-6.86-11.12-10.37-11.19-10.72-27-15.3-42.39-16.88-24.77-2.55-52.4,3.07-68,22.48-4.61,5.73-8.22,12.66-14.59,16.32-6.76,3.88-15.08,3.22-22.75,4.56a43,43,0,0,0-25.23,14.55c-5.23,6.22-8.85,14.1-15.72,18.45-6,3.81-13.53,4.21-20.4,6.13s-14.09,6.58-14.7,13.69L340,254c68.42,12.8,139.86-5.92,208.23,7.22,17.5,3.36,35.13,8.79,52.76,7.66V182.5A29.86,29.86,0,0,0,595.09,180.26Z"/><path class="cls-10" d="M46.28,103.58c7.42-2.57,14.52-6.75,22.37-7,7.33-.25,14.82,3,21.83.82,2.53-.77,4.88-2.23,7.51-2.49s5.36.77,8.08.9,5.93-1.2,6.3-3.89-2.1-4.66-4.38-6a53,53,0,0,0-13-5.32c-3.07-.8-6.25-1.33-9.11-2.7-7.28-3.48-11-11.52-16.6-17.36A34.13,34.13,0,0,0,42.57,50.26c-5.86.41-12,2.32-17.41,0-3.33-1.43-5.81-4.26-8.48-6.72A47.37,47.37,0,0,0,0,33.63V98.8C13.86,106.71,31.14,108.81,46.28,103.58Z"/></g><g id="pool"><rect class="cls-11" x="562.33" y="197.01" width="1.02" height="49.89"/><path class="cls-12" d="M596.91,110.7s.91,13.84-1.7,22.68-15.13,45.06-18.82,60.33c-4.08,16.89-4.76,43.43-3.52,54.76,1.17,10.64,3.75.34,3.75.34s-1.93-14.74,1-42.29c1.8-16.9,10.77-43.77,13.94-53.07s8.06-20.75,9.42-33.9S596.91,110.7,596.91,110.7Z"/><path class="cls-12" d="M533.44,191.53a6.21,6.21,0,0,0-1.25,1.36,2,2,0,0,0-.21,1.77,2.75,2.75,0,0,0,1.18,1.16,17,17,0,0,0,2,1,1.5,1.5,0,0,0,.65.17c.82-.07.91-1.29,1.52-1.84-.36,1-.67,2.17.05,2.89a2.68,2.68,0,0,0,1.4.57,64.48,64.48,0,0,0,12.17,1.06,3.05,3.05,0,0,0,1.24-.2c.9-.43,1.14-1.59,1.27-2.6.37,1.07-.09,2.52.82,3.17a2.29,2.29,0,0,0,1.35.26l15.08-.23a2.46,2.46,0,0,0,1.26-.25,1.65,1.65,0,0,0,.67-1.41,4.78,4.78,0,0,0-.36-1.58,3.11,3.11,0,0,0-.85-1.46,3,3,0,0,0-1.52-.51c-4.5-.6-9.07-.32-13.61-.34a102.9,102.9,0,0,1-20.7-2.17"/><path class="cls-12" d="M571.54,195.28a14.66,14.66,0,0,0,1,3.42,2.1,2.1,0,0,0,.54.83,2.3,2.3,0,0,0,1.47.33,55.88,55.88,0,0,0,11.11-1.18,1.73,1.73,0,0,0,1.07-.52,1.5,1.5,0,0,0,.18-1,16.33,16.33,0,0,0-.94-3,19.81,19.81,0,0,0,1.69,2.23,1.51,1.51,0,0,0,.55.57,1.58,1.58,0,0,0,1.3-.13,12.28,12.28,0,0,0,2.5-1.41,1.88,1.88,0,0,0,.48-.45,1.59,1.59,0,0,0,.06-1.38,4.39,4.39,0,0,0-1.14-1.8.83.83,0,0,0-.38-.23,1,1,0,0,0-.53.12,28.66,28.66,0,0,1-8.19,2.07c-2.81.36-5.65.54-8.44,1a6.07,6.07,0,0,1-2.87.05"/><polygon class="cls-13" points="521.46 260.5 600.85 338.98 600.85 257.34 521.46 260.5"/><polyline class="cls-14" points="0.2 245.54 600.85 245.54 600.85 261.26 0.96 261.26 0.2 247.79"/><polyline class="cls-15" points="0.2 269.43 511.95 269.43 511.95 260.5 0.2 260.5 0.2 247.79"/><polyline class="cls-16" points="600.85 344.16 600.85 384 492.32 269.47 492.32 260.44 543.23 295.93"/><polyline class="cls-17" points="0.2 269.56 511.95 269.56 511.95 260.58 0.2 260.58 0.2 247.79"/><polygon class="cls-18" points="600.85 344.16 600.85 384 492.32 269.47 492.32 260.44 600.85 344.16"/><polygon class="cls-14" points="600.85 330.59 600.85 372.96 492.32 260.44 529.74 260.44 600.85 330.59"/><polygon class="cls-12" points="573.13 285.91 600.85 285.91 600.85 271.1 556.73 271.1 573.13 285.91"/><polygon class="cls-19" points="600.85 273.82 559.74 273.82 562.92 276.69 600.85 276.69 600.85 273.82"/><polygon class="cls-19" points="566.35 279.79 569.53 282.66 600.85 282.66 600.85 279.79 566.35 279.79"/><circle class="cls-20" cx="547.8" cy="51.46" r="20.56"/><path class="cls-12" d="M584.34,83.56a47.67,47.67,0,0,0-19.06,3.61q5.12-1.1,10.3-1.83a16.78,16.78,0,0,0-4.84,1.78,43.68,43.68,0,0,1,9-1.26,12.14,12.14,0,0,0-5.32,2.33,69,69,0,0,1,12.46-1.83,23.86,23.86,0,0,0-5.35,1.53l8.08-.92a18.93,18.93,0,0,0-4.74,1.6,23.57,23.57,0,0,1,7.4-.31,51.12,51.12,0,0,0-8.08,1.86,62.72,62.72,0,0,1,8.67-.16,28,28,0,0,0-12,5.2,44.5,44.5,0,0,0-6.07,5.82,82.56,82.56,0,0,0-15.37,10.47l9.93-5.83a54.56,54.56,0,0,0-8.59,6.86,193.37,193.37,0,0,1,16.68-10.32,55.51,55.51,0,0,0-11.92,8.91q4.43-3.36,9-6.53l-3.41,3.3a34.83,34.83,0,0,1,4.1-2.47,15.72,15.72,0,0,0-3.64,3.73,106.8,106.8,0,0,1,10.94-7.31L574.66,108a81.69,81.69,0,0,1,11.19-6.53,39.86,39.86,0,0,0-6.77,5.07q3.23-2.07,6.6-3.92l-4.15,3.67c1.26-.74,2.54-1.43,3.84-2.11a45.71,45.71,0,0,0-7.1,8,33.94,33.94,0,0,0-4.19,8.6,47.75,47.75,0,0,1,5.59-7.87,26.4,26.4,0,0,0-2.95,5.2,64.93,64.93,0,0,0,6-7.75,24.74,24.74,0,0,1-1.85,4.1l4.84-6.62-2.11,3.92,3.36-3.5a20.09,20.09,0,0,0-1.32,2.36C579.52,117,575.1,125,570.91,132.8q3-4.11,6.26-8.06a28.88,28.88,0,0,0-2.58,6,54.19,54.19,0,0,0,4-6.22,43.09,43.09,0,0,0-1.6,5l3.17-5.86a15.59,15.59,0,0,0-.6,2.69,29.63,29.63,0,0,1,3.59-5.6,8.73,8.73,0,0,0-1.22,3.56,60.63,60.63,0,0,1,4-6.55,32.24,32.24,0,0,0-2.06,4.61Q587,118,590,113.65a21.45,21.45,0,0,0-2.55,5.69c1.57-2.55,3.41-4.94,5.18-7.36a44.87,44.87,0,0,0-1.43,13,44.1,44.1,0,0,1,1.5-8.87,22.23,22.23,0,0,0,.23,6,42.06,42.06,0,0,1,2.18-8.2,16.82,16.82,0,0,0-.49,5.91c.5-2,1-3.94,1.61-5.89l.6-2.08c2.33,9.91.6,20.5,2.4,30.58q.11-4.89.23-9.78a46.82,46.82,0,0,0,.55,6.48,44.83,44.83,0,0,0,.5-4.77c.13.93.31,1.85.52,2.76V86A64.4,64.4,0,0,0,584.34,83.56Z"/><path class="cls-1" d="M578.9,99q1.85-1.52,3.63-3.12l-3,2.83Z"/><path class="cls-1" d="M581.41,97.91a56.88,56.88,0,0,0,5.11-4.19l-3.92,3.72Z"/><path class="cls-1" d="M586.31,96.14l-1.28.41c.86-.55,1.71-1.11,2.55-1.7Z"/><path class="cls-1" d="M590.13,95c-.53.13-1.06.28-1.59.43l3.74-2.56Z"/><polygon class="cls-19" points="563.08 177.28 540.77 184.09 544.63 185.98 563.08 177.28"/><polygon class="cls-21" points="537.14 194.31 533.16 191.68 540.77 184.09 544.63 185.98 537.14 194.31"/><polygon class="cls-21" points="563.08 177.28 544.63 185.98 556.27 186.96 563.08 177.28"/><polygon class="cls-19" points="537.14 194.31 554.13 195.99 556.27 186.96 544.63 185.98 537.14 194.31"/><polygon class="cls-19" points="563.08 177.28 556.27 186.96 568.65 186.81 563.08 177.28"/><polygon class="cls-21" points="554.13 195.99 571.83 195.88 568.65 186.81 556.27 186.96 554.13 195.99"/><polygon class="cls-21" points="563.08 177.28 568.65 186.81 581.69 186.3 563.08 177.28"/><polygon class="cls-19" points="571.83 195.88 586 194.35 581.69 186.3 568.65 186.81 571.83 195.88"/><polygon class="cls-19" points="563.08 177.28 581.69 186.3 585.72 185.11 563.08 177.28"/><polygon class="cls-21" points="586 194.35 591.44 191.85 585.72 185.11 581.69 186.3 586 194.35"/><polygon class="cls-1" points="484.97 245.54 600.85 357.3 600.85 356.6 485.69 245.54 484.97 245.54"/><polygon class="cls-1" points="471.26 245.54 470.54 245.54 486.05 260.5 486.77 260.5 471.26 245.54"/><polygon class="cls-1" points="455.3 245.54 470.82 260.5 471.54 260.5 456.02 245.54 455.3 245.54"/><polygon class="cls-1" points="440.69 245.54 456.2 260.5 456.92 260.5 441.41 245.54 440.69 245.54"/><polygon class="cls-1" points="426.7 245.54 442.21 260.5 442.93 260.5 427.42 245.54 426.7 245.54"/><polygon class="cls-1" points="411.68 245.54 427.19 260.5 427.91 260.5 412.39 245.54 411.68 245.54"/><polygon class="cls-22" points="396.42 245.54 411.94 260.5 412.65 260.5 397.14 245.54 396.42 245.54"/><polygon class="cls-1" points="379.93 245.54 395.44 260.5 396.16 260.5 380.65 245.54 379.93 245.54"/><polygon class="cls-1" points="363.41 245.54 378.93 260.5 379.65 260.5 364.13 245.54 363.41 245.54"/><polygon class="cls-1" points="347.54 245.54 363.05 260.5 363.77 260.5 348.26 245.54 347.54 245.54"/><polygon class="cls-1" points="331.66 245.54 347.18 260.5 347.89 260.5 332.38 245.54 331.66 245.54"/><polygon class="cls-1" points="315.79 245.54 331.3 260.5 332.02 260.5 316.51 245.54 315.79 245.54"/><polygon class="cls-1" points="299.91 245.54 315.43 260.5 316.14 260.5 300.63 245.54 299.91 245.54"/><polygon class="cls-1" points="284.04 245.54 299.55 260.5 300.27 260.5 284.76 245.54 284.04 245.54"/><polygon class="cls-1" points="268.16 245.54 283.68 260.5 284.39 260.5 268.88 245.54 268.16 245.54"/><polygon class="cls-1" points="252.29 245.54 267.8 260.5 268.52 260.5 253.01 245.54 252.29 245.54"/><polygon class="cls-1" points="236.41 245.54 251.92 260.5 252.64 260.5 237.13 245.54 236.41 245.54"/><polygon class="cls-1" points="220.54 245.54 236.05 260.5 236.77 260.5 221.26 245.54 220.54 245.54"/><polygon class="cls-1" points="204.66 245.54 220.17 260.5 220.89 260.5 205.38 245.54 204.66 245.54"/><polygon class="cls-1" points="188.79 245.54 204.3 260.5 205.02 260.5 189.51 245.54 188.79 245.54"/><polygon class="cls-1" points="172.91 245.54 188.42 260.5 189.14 260.5 173.63 245.54 172.91 245.54"/><polygon class="cls-1" points="157.04 245.54 172.55 260.5 173.27 260.5 157.76 245.54 157.04 245.54"/><polygon class="cls-1" points="141.16 245.54 156.67 260.5 157.39 260.5 141.88 245.54 141.16 245.54"/><polygon class="cls-1" points="125.29 245.54 140.8 260.5 141.52 260.5 126.01 245.54 125.29 245.54"/><polygon class="cls-1" points="109.41 245.54 124.92 260.5 125.64 260.5 110.13 245.54 109.41 245.54"/><polygon class="cls-1" points="93.54 245.54 109.05 260.5 109.77 260.5 94.26 245.54 93.54 245.54"/><polygon class="cls-1" points="77.66 245.54 93.17 260.5 93.89 260.5 78.38 245.54 77.66 245.54"/><polygon class="cls-1" points="61.79 245.54 77.3 260.5 78.02 260.5 62.51 245.54 61.79 245.54"/><polygon class="cls-1" points="45.91 245.54 61.42 260.5 62.14 260.5 46.63 245.54 45.91 245.54"/><polygon class="cls-1" points="30.04 245.54 45.55 260.5 46.27 260.5 30.76 245.54 30.04 245.54"/><polygon class="cls-1" points="14.16 245.54 29.67 260.5 30.39 260.5 14.88 245.54 14.16 245.54"/><polygon class="cls-1" points="0.2 247.39 13.8 260.5 14.52 260.5 0.2 246.7 0.2 247.39"/><polygon class="cls-1" points="500.29 245.54 600.85 343.08 600.85 342.38 501 245.54 500.29 245.54"/><polygon class="cls-1" points="514.35 245.54 531.2 261.89 530.56 261.26 531.27 261.26 515.06 245.54 514.35 245.54"/><polygon class="cls-1" points="527.95 245.54 544.16 261.26 544.88 261.26 528.67 245.54 527.95 245.54"/><polygon class="cls-1" points="541.56 245.54 557.76 261.26 558.48 261.26 542.28 245.54 541.56 245.54"/><polygon class="cls-1" points="555.17 245.54 571.37 261.26 572.09 261.26 555.89 245.54 555.17 245.54"/><polygon class="cls-1" points="568.77 245.54 584.98 261.26 585.7 261.26 569.49 245.54 568.77 245.54"/><polygon class="cls-1" points="582.38 245.54 598.59 261.26 599.3 261.26 583.1 245.54 582.38 245.54"/><polygon class="cls-1" points="600.85 249.56 596.71 245.54 595.99 245.54 600.85 250.26 600.85 249.56"/><polygon class="cls-1" points="501.73 261.81 531.12 261.81 530.62 261.31 501.73 261.31 501.73 261.81"/><polygon class="cls-1" points="509.21 268.93 538.33 268.93 537.83 268.43 509.21 268.43 509.21 268.93"/><polygon class="cls-1" points="516.58 276.01 545.52 276.01 545.01 275.51 516.58 275.51 516.58 276.01"/><polygon class="cls-1" points="524.07 283.33 552.93 283.33 552.43 282.83 524.07 282.83 524.07 283.33"/><polygon class="cls-1" points="531.59 290.42 560.12 290.42 559.61 289.92 531.59 289.92 531.59 290.42"/><polygon class="cls-1" points="538.81 297.28 567.07 297.28 566.57 296.78 538.81 296.78 538.81 297.28"/><polygon class="cls-1" points="547.09 305.5 575.41 305.5 574.9 305 547.09 305 547.09 305.5"/><polygon class="cls-1" points="556.46 314.27 584.3 314.27 583.79 313.77 556.46 313.77 556.46 314.27"/><polygon class="cls-1" points="565.68 323.34 593.5 323.34 592.99 322.84 565.68 322.84 565.68 323.34"/><rect class="cls-1" x="575.06" y="331.76" width="25.79" height="0.5"/><rect class="cls-1" x="584.88" y="341.13" width="15.97" height="0.5"/><rect class="cls-1" x="595.47" y="351.56" width="5.38" height="0.5"/><rect class="cls-1" x="0.2" y="249.72" width="600.65" height="0.5"/><rect class="cls-1" x="0.2" y="255.61" width="600.65" height="0.5"/><path class="cls-23" d="M531.67,250.27c0,3.76,12.77,6.8,28.52,6.8s28.52-3,28.52-6.8c0-1.83-3.07-3.5-8-4.72h-41C534.74,246.77,531.67,248.44,531.67,250.27Z"/><path class="cls-1" d="M588.71,250.22a1.71,1.71,0,0,0-.1-.5H587.4l-3.2-3.11-1.12-.39,3.6,3.5H573.8l-4.31-4.17h-.72l4.31,4.17H560.19l-4.3-4.17h-.72l4.3,4.17H546.58l-4.3-4.17h-.72l4.3,4.17H533l-.77-.75a2,2,0,0,0-.28.42l.34.33h-.49a1.71,1.71,0,0,0-.1.5h1.1l4.09,4c.34.12.69.23,1.07.34l-4.44-4.3h12.89l5.56,5.39h-9.38c1,.19,2,.35,3,.5h6.86l.77.76.76,0-.81-.8h12.89l.79.77.67,0-.75-.73h8c1.06-.15,2.08-.31,3-.5H566.27l-5.57-5.39h12.89l5.34,5.18.59-.13-5.21-5.05H587.2l1.16,1.12a2.54,2.54,0,0,0,.24-.46l-.68-.66Z"/><polygon class="cls-23" points="565.55 255.61 552.66 255.61 547.1 250.22 559.99 250.22 565.55 255.61"/><path class="cls-12" d="M556.23,300.37c-2-.94-3.85-.41-5.58,1.62l-2.54,2.94a75.52,75.52,0,0,0-5.86,7.3c-2.32,3.41-3.85,6.15-3.85,12.95V462.91a1.25,1.25,0,0,0,2.5,0V445.58l6.24,6.93a1,1,0,0,0,.74.34,1,1,0,0,0,.67-.26,1,1,0,0,0,.07-1.41l-7.72-8.6V432.27l6.24,6.94a1,1,0,0,0,.74.33,1,1,0,0,0,.67-.25,1,1,0,0,0,.07-1.42l-7.72-8.59v-9.86l6.24,6.94a1,1,0,0,0,.74.33,1,1,0,0,0,.67-.26,1,1,0,0,0,.07-1.41l-7.72-8.59V407l6.24,6.94a1,1,0,0,0,.74.33,1,1,0,0,0,.67-.25,1,1,0,0,0,.07-1.42L540.9,404v-9.41l6.24,6.94a1,1,0,0,0,.74.33,1,1,0,0,0,.74-1.66l-7.72-8.6v-9.4l6.24,6.94a1,1,0,0,0,1.41.07,1,1,0,0,0,.07-1.41l-7.72-8.6v-9.4l6.24,6.94a1,1,0,0,0,.74.33,1,1,0,0,0,.67-.26,1,1,0,0,0,.07-1.41l-7.72-8.59v-9.41l6.24,6.94a1,1,0,0,0,.74.33,1,1,0,0,0,.67-.25,1,1,0,0,0,.07-1.42l-7.72-8.59V345l6.24,6.94a1,1,0,0,0,.74.33,1,1,0,0,0,.74-1.66L540.9,342v-9.4l6.24,6.93a1,1,0,0,0,.74.34,1,1,0,0,0,.67-.26,1,1,0,0,0,.07-1.41l-7.72-8.6v-4.46c0-6.1,1.29-8.43,3.42-11.54a75.28,75.28,0,0,1,5.67-7.07c.77-.89,1.62-1.86,2.56-3,1.34-1.57,2.09-1.23,2.63-1s.46,2,.46,3.64v15.27a1.25,1.25,0,1,0,2.5,0V306.28C558.14,303.47,558.14,301.26,556.23,300.37Z"/><path class="cls-12" d="M548,471a1.24,1.24,0,0,1-1.25-1.25V332c0-6.8,1.52-9.55,3.84-12.95a75.83,75.83,0,0,1,5.86-7.3l2.54-2.94c1.73-2,3.56-2.56,5.59-1.62s1.9,3.1,1.9,5.91V328.4a1.25,1.25,0,0,1-2.5,0V313.13c0-1.61,0-3.43-.46-3.64s-1.29-.6-2.63,1c-.94,1.1-1.78,2.07-2.56,3a76.54,76.54,0,0,0-5.67,7.06c-2.13,3.12-3.41,5.45-3.41,11.55V469.76A1.25,1.25,0,0,1,548,471Z"/><path class="cls-24" d="M540.9,364.29v-6.86l6.24,6.94a1,1,0,0,0,.74.33,1,1,0,0,0,.67-.25,1,1,0,0,0,.07-1.42l-7.72-8.59v-5.69c-.85-1.08-1.69-2.2-2.5-3.34V363.8A13.82,13.82,0,0,1,540.9,364.29Z"/><path class="cls-24" d="M549.21,369.85V356.71a14.61,14.61,0,0,1-2.5-1.57v12.23A18.89,18.89,0,0,1,549.21,369.85Z"/><path class="cls-24" d="M547.29,387.28l.31.47c.42.33.83.68,1.22,1a1,1,0,0,0-.2-.95l-7.72-8.6v-9.4l6.24,6.94a1,1,0,0,0,.74.33,1,1,0,0,0,.67-.26,1,1,0,0,0,.07-1.41l-7.72-8.59v-5.65c-.84-.8-1.68-1.6-2.5-2.41V380.1A21.29,21.29,0,0,1,547.29,387.28Z"/><path class="cls-24" d="M547.29,387.28l.31.47c.57.45,1.09.91,1.61,1.39V368.86a14.43,14.43,0,0,1-2.08-1.74l-.42-.42v19.83C546.9,386.78,547.1,387,547.29,387.28Z"/><path class="cls-25" d="M540.9,398.3v-3.68l3.65,4.07a18.08,18.08,0,0,1,2.51-.21l-6.16-6.85v-9.4l6.24,6.94a1,1,0,0,0,1.41.07,1,1,0,0,0,.07-1.41l-7.72-8.6v-1a22.83,22.83,0,0,1-2.5-3.64V398A16.13,16.13,0,0,1,540.9,398.3Z"/><path class="cls-25" d="M549.21,398.6v-14a26.69,26.69,0,0,1-2.5-1.41V398.5A17.25,17.25,0,0,1,549.21,398.6Z"/><g class="cls-26"><path class="cls-27" d="M547.14,401.56a1,1,0,0,0,.74.33,1,1,0,0,0,.74-1.66l-4.81-5.37c-1.84-1.35-3.66-2.68-5.41-4.08v72.13a1.25,1.25,0,0,0,2.5,0V445.58l6.24,6.93a1,1,0,0,0,.74.34,1,1,0,0,0,.67-.26,1,1,0,0,0,.07-1.41l-7.72-8.6V432.27l6.24,6.94a1,1,0,0,0,.74.33,1,1,0,0,0,.67-.25,1,1,0,0,0,.07-1.42l-7.72-8.59v-9.86l6.24,6.94a1,1,0,0,0,.74.33,1,1,0,0,0,.67-.26,1,1,0,0,0,.07-1.41l-7.72-8.59V407l6.24,6.94a1,1,0,0,0,.74.33,1,1,0,0,0,.67-.25,1,1,0,0,0,.07-1.42L540.9,404v-9.41Z"/><path class="cls-27" d="M546.71,396.92v72.84a1.25,1.25,0,0,0,2.5,0V398A11.91,11.91,0,0,1,546.71,396.92Z"/></g><path class="cls-28" d="M540.9,414.54V407l6.24,7a1,1,0,0,0,.74.33,1,1,0,0,0,.74-1.68L540.9,404v-6.55a15,15,0,0,1-2.5-.84v18.17A17.53,17.53,0,0,1,540.9,414.54Z"/><path class="cls-28" d="M546.46,397.8c-.46.05-.93.1-1.4.12s-.79,0-1.19,0l3.27,3.65a1,1,0,0,0,.74.33,1,1,0,0,0,.74-1.68Z"/><path class="cls-28" d="M549.21,416.52V397.26a19.09,19.09,0,0,1-2.5.51v17.66A15.89,15.89,0,0,1,549.21,416.52Z"/><path class="cls-29" d="M547.14,426.36a1,1,0,0,0,.74.33,1,1,0,0,0,.67-.26,1,1,0,0,0,.07-1.41l-7.72-8.59V411.5c-.4-.31-.8-.64-1.17-1l-1.33-1.15v53.54a1.25,1.25,0,0,0,2.5,0V445.58l6.24,6.93a1,1,0,0,0,.74.34,1,1,0,0,0,.67-.26,1,1,0,0,0,.07-1.41l-7.72-8.6V432.27l6.24,6.94a1,1,0,0,0,.74.33,1,1,0,0,0,.67-.25,1,1,0,0,0,.07-1.42l-7.72-8.59v-9.86Z"/><path class="cls-29" d="M546.71,414.52v55.24a1.25,1.25,0,0,0,2.5,0V415.13A19.39,19.39,0,0,1,546.71,414.52Z"/><path class="cls-30" d="M547.14,439.21a1,1,0,0,0,.74.33,1,1,0,0,0,.67-.25,1,1,0,0,0,.07-1.42l-7.72-8.59V422a20.72,20.72,0,0,1-2.5-1.35v42.24a1.25,1.25,0,0,0,2.5,0V445.58l6.24,6.93a1,1,0,0,0,.74.34,1,1,0,0,0,.67-.26,1,1,0,0,0,.07-1.41l-7.72-8.6V432.27Z"/><path class="cls-30" d="M547.54,423.82a13.32,13.32,0,0,1-3.11-.48l2.71,3a1,1,0,0,0,.74.33,1,1,0,0,0,.67-.26,1,1,0,0,0,.07-1.41Z"/><path class="cls-30" d="M546.71,423.76v46a1.25,1.25,0,0,0,2.5,0v-46A13.05,13.05,0,0,1,546.71,423.76Z"/><path class="cls-31" d="M19.63,401.94c6.08-.43,11.65-3.36,17.36-5.51,22.61-8.52,40.7-4.39,59.49,10.79,1.61-14.62,24.91-30.8,51.12-24.25s26.88,28.19,41.29,29.5c25.73,2.33,16,28,30.15,23.59,10.49-3.28,27.23,7.1,27.53,19,.42,16.67-18,20.31-19.91,20.81-5.77,6.81-14.61,24.46-27,31.19-15.23,8.28-28.66,2.68-39.84,7.82-18,8.31-29.63,2.05-44.28.59-37.76-3.74-33.69-6.33-44.61-.09-4.29,2.45-16.1,13.32-33.53,13.41S2.3,516.84,0,505.55V401.28c1.89-.41,1-.77,3-.75C8.58,400.57,14.07,402.33,19.63,401.94Z"/><path class="cls-31" d="M329.9,305.63c4.48.3,8.74-.79,13.05-1.45,17.08-2.61,30.05,1.19,42.82,11,2.11-7.73,20.19-14.4,38.94-8.59s17.85,17.5,28.31,19.47c18.66,3.5,9.89,16.47,20.53,15.32,7.88-.85,19.46,6.19,18.91,12.63-.76,9-14.48,9.36-15.89,9.46-4.66,3.16-1.81,4.07-11.3,6.61-11.68,3.12-14.82-10.07-28.26.56-9.62,7.6-30,4.37-40.63,2.31-27.37-5.31-27.86-4.21-36.24-1.81-3.3.95-12.63,5.77-25.39,4.3-3.16-.37-18.88-11.47-34.64-14.47-13.89-2.64-27.94,3.17-31.68-2.12-2.42-3.41-1.74-15.71,6.93-19,9-3.45,3.33-11.2,15.52-18.58,6.26-3.79,18.86,1.14,20.28-2.71C315,308.28,328.29,305.52,329.9,305.63Z"/><path class="cls-31" d="M601.11,599.86l-.46-154V421.54c-43.58-8.59-92.73,16.06-109.72,57.59-4,9.84-7.27,21.39-16.67,26.35-4.49,2.37-16.65,2.46-21.58,3.67-23,5.64-32.21,28.54-55.38,33.62-23.42,5.14-46.34-8.87-69.88-13.47a90.75,90.75,0,0,0-54.32,6.3c-19.13,8.64-35,23.84-54.89,30.55-20.3,6.85-42.49,4.12-63.65,7.44A112.88,112.88,0,0,0,97.1,601Z"/></g></svg>